<?xml version="1.0" encoding="UTF-8" standalone="no"?>
<!-- Created with Inkscape (http://www.inkscape.org/) -->

<svg
   version="1.1"
   id="svg1"
   width="2666.6667"
   height="2666.6667"
   viewBox="0 0 2666.6667 2666.6667"
   xmlns:inkscape="http://www.inkscape.org/namespaces/inkscape"
   xmlns:sodipodi="http://sodipodi.sourceforge.net/DTD/sodipodi-0.dtd"
   xmlns="http://www.w3.org/2000/svg"
   xmlns:svg="http://www.w3.org/2000/svg">
  <defs
     id="defs1" />
  <sodipodi:namedview
     id="namedview1"
     pagecolor="#ffffff"
     bordercolor="#000000"
     borderopacity="0.25"
     inkscape:showpageshadow="2"
     inkscape:pageopacity="0.0"
     inkscape:pagecheckerboard="0"
     inkscape:deskcolor="#d1d1d1">
    <inkscape:page
       x="0"
       y="0"
       inkscape:label="1"
       id="page1"
       width="2666.6667"
       height="2666.6667"
       margin="0"
       bleed="0" />
  </sodipodi:namedview>
  <g
     id="g1"
     inkscape:groupmode="layer"
     inkscape:label="1">
    <g
       id="group-R5">
      <path
         id="path3"
         d="m 3548.14,10359.6 -319.6,15.9 c -0.85,-17 -1.64,-34.1 -2.36,-51.1 l 319.71,-13.6 c 0.69,16.3 1.44,32.5 2.25,48.8"
         style="fill:#99A1AF;fill-opacity:1;fill-rule:nonzero;stroke:none"
         transform="matrix(0.13333333,0,0,-0.13333333,0,2666.6667)" />
      <path
         id="path4"
         d="m 4130.38,12730.7 -290.6,134 c -7.11,-15.5 -14.18,-30.9 -21.19,-46.4 l 291.58,-131.9 c 6.69,14.8 13.42,29.5 20.21,44.3"
         style="fill:#99A1AF;fill-opacity:1;fill-rule:nonzero;stroke:none"
         transform="matrix(0.13333333,0,0,-0.13333333,0,2666.6667)" />
      <path
         id="path5"
         d="m 3835.98,11968.3 -305.25,96 c -5.12,-16.3 -10.18,-32.6 -15.18,-48.9 l 305.96,-93.7 c 4.77,15.5 9.59,31.1 14.47,46.6"
         style="fill:#99A1AF;fill-opacity:1;fill-rule:nonzero;stroke:none"
         transform="matrix(0.13333333,0,0,-0.13333333,0,2666.6667)" />
      <path
         id="path6"
         d="m 3971,12354.1 -298.52,115.2 c -6.12,-15.8 -12.19,-31.7 -18.19,-47.6 l 299.38,-113 c 5.72,15.1 11.5,30.2 17.33,45.4"
         style="fill:#99A1AF;fill-opacity:1;fill-rule:nonzero;stroke:none"
         transform="matrix(0.13333333,0,0,-0.13333333,0,2666.6667)" />
      <path
         id="path7"
         d="m 3581.48,10767.9 -317.95,36.1 c -1.93,-16.9 -3.79,-33.9 -5.59,-50.9 l 318.22,-33.7 c 1.71,16.2 3.49,32.3 5.32,48.5"
         style="fill:#99A1AF;fill-opacity:1;fill-rule:nonzero;stroke:none"
         transform="matrix(0.13333333,0,0,-0.13333333,0,2666.6667)" />
      <path
         id="path8"
         d="m 3725.61,11573.8 -310.76,76.4 c -4.07,-16.6 -8.07,-33.2 -12.02,-49.8 l 311.34,-74 c 3.75,15.8 7.57,31.6 11.44,47.4"
         style="fill:#99A1AF;fill-opacity:1;fill-rule:nonzero;stroke:none"
         transform="matrix(0.13333333,0,0,-0.13333333,0,2666.6667)" />
      <path
         id="path9"
         d="m 6348.03,15743 c -14.42,-9.2 -28.79,-18.5 -43.13,-27.8 l 174.64,-268.2 c 13.64,8.9 27.33,17.7 41.04,26.5 l -172.55,269.5"
         style="fill:#99A1AF;fill-opacity:1;fill-rule:nonzero;stroke:none"
         transform="matrix(0.13333333,0,0,-0.13333333,0,2666.6667)" />
      <path
         id="path10"
         d="m 3640.68,11173.2 -315.01,56.3 c -3,-16.8 -5.93,-33.6 -8.82,-50.4 l 315.43,-54 c 2.74,16 5.54,32.1 8.4,48.1"
         style="fill:#99A1AF;fill-opacity:1;fill-rule:nonzero;stroke:none"
         transform="matrix(0.13333333,0,0,-0.13333333,0,2666.6667)" />
      <path
         id="path11"
         d="m 6182.43,15241.5 -189.3,258 c -13.78,-10.1 -27.53,-20.3 -41.23,-30.5 l 191.26,-256.5 c 13.05,9.7 26.14,19.4 39.27,29"
         style="fill:#99A1AF;fill-opacity:1;fill-rule:nonzero;stroke:none"
         transform="matrix(0.13333333,0,0,-0.13333333,0,2666.6667)" />
      <path
         id="path12"
         d="m 5265.58,14424.5 -234.55,217.7 c -11.59,-12.5 -23.14,-25 -34.63,-37.6 l 236.08,-216 c 10.99,12 22.03,24 33.1,35.9"
         style="fill:#99A1AF;fill-opacity:1;fill-rule:nonzero;stroke:none"
         transform="matrix(0.13333333,0,0,-0.13333333,0,2666.6667)" />
      <path
         id="path13"
         d="m 4747.36,13790.4 -260.07,186.5 c -9.92,-13.9 -19.79,-27.8 -29.62,-41.7 l 261.44,-184.5 c 9.37,13.3 18.78,26.5 28.25,39.7"
         style="fill:#99A1AF;fill-opacity:1;fill-rule:nonzero;stroke:none"
         transform="matrix(0.13333333,0,0,-0.13333333,0,2666.6667)" />
      <path
         id="path14"
         d="m 4519.38,13450.3 -271.31,169.6 c -9.04,-14.4 -18.02,-28.9 -26.95,-43.4 l 272.61,-167.6 c 8.5,13.8 17.05,27.6 25.65,41.4"
         style="fill:#99A1AF;fill-opacity:1;fill-rule:nonzero;stroke:none"
         transform="matrix(0.13333333,0,0,-0.13333333,0,2666.6667)" />
      <path
         id="path15"
         d="m 5553.72,14715.9 -220.35,232.1 c -12.38,-11.8 -24.72,-23.6 -37.01,-35.5 l 222.11,-230.3 c 11.7,11.3 23.45,22.5 35.25,33.7"
         style="fill:#99A1AF;fill-opacity:1;fill-rule:nonzero;stroke:none"
         transform="matrix(0.13333333,0,0,-0.13333333,0,2666.6667)" />
      <path
         id="path16"
         d="m 4996.43,14115.6 -247.79,202.5 c -10.79,-13.2 -21.52,-26.5 -32.21,-39.8 l 249.27,-200.6 c 10.2,12.7 20.44,25.3 30.73,37.9"
         style="fill:#99A1AF;fill-opacity:1;fill-rule:nonzero;stroke:none"
         transform="matrix(0.13333333,0,0,-0.13333333,0,2666.6667)" />
      <path
         id="path17"
         d="m 5859.72,14988.6 -205.24,245.5 c -13.11,-10.9 -26.17,-21.9 -39.2,-33 l 207.11,-243.9 c 12.4,10.5 24.84,21 37.33,31.4"
         style="fill:#99A1AF;fill-opacity:1;fill-rule:nonzero;stroke:none"
         transform="matrix(0.13333333,0,0,-0.13333333,0,2666.6667)" />
      <path
         id="path18"
         d="m 4313.42,13096.5 -281.49,152.3 c -8.1,-15 -16.15,-30.1 -24.14,-45.1 l 282.67,-150 c 7.6,14.3 15.25,28.6 22.96,42.8"
         style="fill:#99A1AF;fill-opacity:1;fill-rule:nonzero;stroke:none"
         transform="matrix(0.13333333,0,0,-0.13333333,0,2666.6667)" />
      <path
         id="path19"
         d="m 6717.83,15963.5 c -15,-8.3 -29.96,-16.6 -44.87,-25 l 157.25,-278.7 c 14.18,8 28.39,15.9 42.64,23.8 l -155.02,279.9"
         style="fill:#99A1AF;fill-opacity:1;fill-rule:nonzero;stroke:none"
         transform="matrix(0.13333333,0,0,-0.13333333,0,2666.6667)" />
      <path
         id="path20"
         d="m 7852.13,16461.7 101.22,-303.5 c 15.4,5.1 30.84,10.2 46.31,15.2 l -98.86,304.3 c -16.25,-5.2 -32.47,-10.6 -48.67,-16"
         style="fill:#99A1AF;fill-opacity:1;fill-rule:nonzero;stroke:none"
         transform="matrix(0.13333333,0,0,-0.13333333,0,2666.6667)" />
      <path
         id="path21"
         d="m 8264.29,16584.6 81.53,-309.4 c 15.71,4.1 31.45,8.2 47.22,12.2 l -79.18,310.1 c -16.55,-4.3 -33.08,-8.6 -49.57,-12.9"
         style="fill:#99A1AF;fill-opacity:1;fill-rule:nonzero;stroke:none"
         transform="matrix(0.13333333,0,0,-0.13333333,0,2666.6667)" />
      <path
         id="path22"
         d="m 8683.32,16680.9 61.73,-314 c 15.94,3.1 31.9,6.2 47.88,9.2 l -59.31,314.5 c -16.79,-3.2 -33.56,-6.4 -50.3,-9.7"
         style="fill:#99A1AF;fill-opacity:1;fill-rule:nonzero;stroke:none"
         transform="matrix(0.13333333,0,0,-0.13333333,0,2666.6667)" />
      <path
         id="path23"
         d="m 9107.56,16750.4 41.76,-317.3 c 16.11,2.2 32.24,4.2 48.39,6.2 l -39.35,317.6 c -16.95,-2.1 -33.89,-4.3 -50.8,-6.5"
         style="fill:#99A1AF;fill-opacity:1;fill-rule:nonzero;stroke:none"
         transform="matrix(0.13333333,0,0,-0.13333333,0,2666.6667)" />
      <path
         id="path24"
         d="m 7054.7,16138 139.09,-288.2 c 14.68,7.1 29.4,14.1 44.14,21.1 l -136.87,289.2 c -15.49,-7.3 -30.94,-14.7 -46.36,-22.1"
         style="fill:#99A1AF;fill-opacity:1;fill-rule:nonzero;stroke:none"
         transform="matrix(0.13333333,0,0,-0.13333333,0,2666.6667)" />
      <path
         id="path25"
         d="m 7448.55,16312.7 120.33,-296.5 c 15.12,6.2 30.28,12.2 45.46,18.3 l -118.09,297.4 c -15.93,-6.3 -31.83,-12.7 -47.7,-19.2"
         style="fill:#99A1AF;fill-opacity:1;fill-rule:nonzero;stroke:none"
         transform="matrix(0.13333333,0,0,-0.13333333,0,2666.6667)" />
      <path
         id="path26"
         d="m 9535.27,16793 21.77,-319.2 c 16.21,1.1 32.45,2.1 48.7,3.1 l -19.39,319.4 c -17.05,-1 -34.08,-2.1 -51.08,-3.3"
         style="fill:#99A1AF;fill-opacity:1;fill-rule:nonzero;stroke:none"
         transform="matrix(0.13333333,0,0,-0.13333333,0,2666.6667)" />
      <path
         id="path27"
         d="m 3548.14,9640.4 -319.6,-15.9 c -0.85,17 -1.64,34.1 -2.36,51.1 l 319.71,13.6 c 0.69,-16.3 1.44,-32.5 2.25,-48.8"
         style="fill:#99A1AF;fill-opacity:1;fill-rule:nonzero;stroke:none"
         transform="matrix(0.13333333,0,0,-0.13333333,0,2666.6667)" />
      <path
         id="path28"
         d="m 4130.38,7269.3 -290.6,-134 c -7.11,15.5 -14.18,30.9 -21.19,46.5 l 291.58,131.8 c 6.69,-14.8 13.42,-29.5 20.21,-44.3"
         style="fill:#99A1AF;fill-opacity:1;fill-rule:nonzero;stroke:none"
         transform="matrix(0.13333333,0,0,-0.13333333,0,2666.6667)" />
      <path
         id="path29"
         d="m 3835.98,8031.7 -305.25,-96 c -5.12,16.3 -10.18,32.6 -15.18,48.9 l 305.96,93.7 c 4.77,-15.5 9.59,-31.1 14.47,-46.6"
         style="fill:#99A1AF;fill-opacity:1;fill-rule:nonzero;stroke:none"
         transform="matrix(0.13333333,0,0,-0.13333333,0,2666.6667)" />
      <path
         id="path30"
         d="m 3971,7645.9 -298.52,-115.2 c -6.12,15.8 -12.19,31.7 -18.19,47.6 l 299.38,113 c 5.72,-15.1 11.5,-30.2 17.33,-45.4"
         style="fill:#99A1AF;fill-opacity:1;fill-rule:nonzero;stroke:none"
         transform="matrix(0.13333333,0,0,-0.13333333,0,2666.6667)" />
      <path
         id="path31"
         d="M 3581.48,9232.1 3263.53,9196 c -1.93,17 -3.79,33.9 -5.59,50.9 l 318.22,33.7 c 1.71,-16.2 3.49,-32.3 5.32,-48.5"
         style="fill:#99A1AF;fill-opacity:1;fill-rule:nonzero;stroke:none"
         transform="matrix(0.13333333,0,0,-0.13333333,0,2666.6667)" />
      <path
         id="path32"
         d="m 3725.61,8426.2 -310.76,-76.4 c -4.07,16.6 -8.07,33.2 -12.02,49.8 l 311.34,74 c 3.75,-15.8 7.57,-31.6 11.44,-47.4"
         style="fill:#99A1AF;fill-opacity:1;fill-rule:nonzero;stroke:none"
         transform="matrix(0.13333333,0,0,-0.13333333,0,2666.6667)" />
      <path
         id="path33"
         d="m 6348.03,4257 c -14.42,9.2 -28.79,18.5 -43.13,27.8 l 174.64,268.2 c 13.64,-8.9 27.33,-17.7 41.04,-26.5 L 6348.03,4257"
         style="fill:#99A1AF;fill-opacity:1;fill-rule:nonzero;stroke:none"
         transform="matrix(0.13333333,0,0,-0.13333333,0,2666.6667)" />
      <path
         id="path34"
         d="m 3640.68,8826.8 -315.01,-56.3 c -3,16.8 -5.93,33.6 -8.82,50.4 l 315.43,54 c 2.74,-16 5.54,-32.1 8.4,-48.1"
         style="fill:#99A1AF;fill-opacity:1;fill-rule:nonzero;stroke:none"
         transform="matrix(0.13333333,0,0,-0.13333333,0,2666.6667)" />
      <path
         id="path35"
         d="m 6182.43,4758.5 -189.3,-258 c -13.78,10.1 -27.53,20.3 -41.23,30.5 l 191.26,256.5 c 13.05,-9.7 26.14,-19.4 39.27,-29"
         style="fill:#99A1AF;fill-opacity:1;fill-rule:nonzero;stroke:none"
         transform="matrix(0.13333333,0,0,-0.13333333,0,2666.6667)" />
      <path
         id="path36"
         d="m 5265.58,5575.5 -234.55,-217.7 c -11.59,12.5 -23.14,25 -34.63,37.6 l 236.08,216 c 10.99,-12 22.03,-24 33.1,-35.9"
         style="fill:#99A1AF;fill-opacity:1;fill-rule:nonzero;stroke:none"
         transform="matrix(0.13333333,0,0,-0.13333333,0,2666.6667)" />
      <path
         id="path37"
         d="m 4747.36,6209.6 -260.07,-186.5 c -9.92,13.9 -19.79,27.8 -29.62,41.7 l 261.44,184.5 c 9.37,-13.3 18.78,-26.5 28.25,-39.7"
         style="fill:#99A1AF;fill-opacity:1;fill-rule:nonzero;stroke:none"
         transform="matrix(0.13333333,0,0,-0.13333333,0,2666.6667)" />
      <path
         id="path38"
         d="m 4519.38,6549.7 -271.31,-169.6 c -9.04,14.4 -18.02,28.9 -26.95,43.4 l 272.61,167.6 c 8.5,-13.8 17.05,-27.6 25.65,-41.4"
         style="fill:#99A1AF;fill-opacity:1;fill-rule:nonzero;stroke:none"
         transform="matrix(0.13333333,0,0,-0.13333333,0,2666.6667)" />
      <path
         id="path39"
         d="M 5553.72,5284.1 5333.37,5052 c -12.38,11.8 -24.72,23.6 -37.01,35.5 l 222.11,230.3 c 11.7,-11.3 23.45,-22.5 35.25,-33.7"
         style="fill:#99A1AF;fill-opacity:1;fill-rule:nonzero;stroke:none"
         transform="matrix(0.13333333,0,0,-0.13333333,0,2666.6667)" />
      <path
         id="path40"
         d="m 4996.43,5884.4 -247.79,-202.5 c -10.79,13.2 -21.52,26.5 -32.21,39.8 l 249.27,200.6 c 10.2,-12.6 20.44,-25.3 30.73,-37.9"
         style="fill:#99A1AF;fill-opacity:1;fill-rule:nonzero;stroke:none"
         transform="matrix(0.13333333,0,0,-0.13333333,0,2666.6667)" />
      <path
         id="path41"
         d="m 5859.72,5011.4 -205.24,-245.5 c -13.11,10.9 -26.17,21.9 -39.2,33 l 207.11,243.9 c 12.4,-10.5 24.84,-21 37.33,-31.4"
         style="fill:#99A1AF;fill-opacity:1;fill-rule:nonzero;stroke:none"
         transform="matrix(0.13333333,0,0,-0.13333333,0,2666.6667)" />
      <path
         id="path42"
         d="m 4313.42,6903.5 -281.49,-152.2 c -8.1,14.9 -16.15,30 -24.14,45 l 282.67,150 c 7.6,-14.3 15.25,-28.6 22.96,-42.8"
         style="fill:#99A1AF;fill-opacity:1;fill-rule:nonzero;stroke:none"
         transform="matrix(0.13333333,0,0,-0.13333333,0,2666.6667)" />
      <path
         id="path43"
         d="m 6717.83,4036.5 c -15,8.3 -29.96,16.6 -44.87,25 l 157.25,278.7 c 14.18,-8 28.39,-15.9 42.64,-23.8 l -155.02,-279.9"
         style="fill:#99A1AF;fill-opacity:1;fill-rule:nonzero;stroke:none"
         transform="matrix(0.13333333,0,0,-0.13333333,0,2666.6667)" />
      <path
         id="path44"
         d="m 7852.13,3538.3 101.22,303.5 c 15.4,-5.1 30.84,-10.2 46.31,-15.2 l -98.86,-304.3 c -16.25,5.2 -32.47,10.6 -48.67,16"
         style="fill:#99A1AF;fill-opacity:1;fill-rule:nonzero;stroke:none"
         transform="matrix(0.13333333,0,0,-0.13333333,0,2666.6667)" />
      <path
         id="path45"
         d="m 8264.29,3415.4 81.53,309.4 c 15.71,-4.1 31.45,-8.2 47.22,-12.2 l -79.18,-310.1 c -16.55,4.3 -33.08,8.6 -49.57,12.9"
         style="fill:#99A1AF;fill-opacity:1;fill-rule:nonzero;stroke:none"
         transform="matrix(0.13333333,0,0,-0.13333333,0,2666.6667)" />
      <path
         id="path46"
         d="m 8683.32,3319.1 61.73,314 c 15.94,-3.1 31.9,-6.2 47.88,-9.2 l -59.31,-314.5 c -16.79,3.2 -33.56,6.4 -50.3,9.7"
         style="fill:#99A1AF;fill-opacity:1;fill-rule:nonzero;stroke:none"
         transform="matrix(0.13333333,0,0,-0.13333333,0,2666.6667)" />
      <path
         id="path47"
         d="m 9107.56,3249.6 41.76,317.3 c 16.11,-2.2 32.24,-4.2 48.39,-6.2 l -39.35,-317.6 c -16.95,2.1 -33.89,4.3 -50.8,6.5"
         style="fill:#99A1AF;fill-opacity:1;fill-rule:nonzero;stroke:none"
         transform="matrix(0.13333333,0,0,-0.13333333,0,2666.6667)" />
      <path
         id="path48"
         d="m 7054.7,3862 139.09,288.2 c 14.68,-7.1 29.4,-14.1 44.14,-21.1 l -136.87,-289.2 c -15.49,7.3 -30.94,14.7 -46.36,22.1"
         style="fill:#99A1AF;fill-opacity:1;fill-rule:nonzero;stroke:none"
         transform="matrix(0.13333333,0,0,-0.13333333,0,2666.6667)" />
      <path
         id="path49"
         d="m 7448.55,3687.3 120.33,296.5 c 15.12,-6.2 30.28,-12.3 45.46,-18.3 l -118.09,-297.4 c -15.93,6.3 -31.83,12.7 -47.7,19.2"
         style="fill:#99A1AF;fill-opacity:1;fill-rule:nonzero;stroke:none"
         transform="matrix(0.13333333,0,0,-0.13333333,0,2666.6667)" />
      <path
         id="path50"
         d="m 9535.27,3207 21.77,319.2 c 16.21,-1.1 32.45,-2.1 48.7,-3.1 l -19.39,-319.4 c -17.05,1 -34.08,2.1 -51.08,3.3"
         style="fill:#99A1AF;fill-opacity:1;fill-rule:nonzero;stroke:none"
         transform="matrix(0.13333333,0,0,-0.13333333,0,2666.6667)" />
      <path
         id="path51"
         d="m 16451.9,10359.6 319.6,15.9 c 0.8,-17 1.6,-34.1 2.3,-51.1 l -319.7,-13.6 c -0.7,16.3 -1.4,32.5 -2.2,48.8"
         style="fill:#99A1AF;fill-opacity:1;fill-rule:nonzero;stroke:none"
         transform="matrix(0.13333333,0,0,-0.13333333,0,2666.6667)" />
      <path
         id="path52"
         d="m 15869.6,12730.7 290.6,134 c 7.1,-15.5 14.2,-30.9 21.2,-46.4 l -291.6,-131.9 c -6.7,14.8 -13.4,29.5 -20.2,44.3"
         style="fill:#99A1AF;fill-opacity:1;fill-rule:nonzero;stroke:none"
         transform="matrix(0.13333333,0,0,-0.13333333,0,2666.6667)" />
      <path
         id="path53"
         d="m 16164,11968.3 305.3,96 c 5.1,-16.3 10.2,-32.6 15.2,-48.9 l -306,-93.7 c -4.8,15.5 -9.6,31.1 -14.5,46.6"
         style="fill:#99A1AF;fill-opacity:1;fill-rule:nonzero;stroke:none"
         transform="matrix(0.13333333,0,0,-0.13333333,0,2666.6667)" />
      <path
         id="path54"
         d="m 16029,12354.1 298.5,115.2 c 6.1,-15.8 12.2,-31.7 18.2,-47.6 l -299.4,-113 c -5.7,15.1 -11.5,30.2 -17.3,45.4"
         style="fill:#99A1AF;fill-opacity:1;fill-rule:nonzero;stroke:none"
         transform="matrix(0.13333333,0,0,-0.13333333,0,2666.6667)" />
      <path
         id="path55"
         d="m 16418.5,10767.9 318,36.1 c 1.9,-16.9 3.8,-33.9 5.6,-50.9 l -318.3,-33.7 c -1.7,16.2 -3.4,32.3 -5.3,48.5"
         style="fill:#99A1AF;fill-opacity:1;fill-rule:nonzero;stroke:none"
         transform="matrix(0.13333333,0,0,-0.13333333,0,2666.6667)" />
      <path
         id="path56"
         d="m 16274.4,11573.8 310.7,76.4 c 4.1,-16.6 8.1,-33.2 12.1,-49.8 l -311.4,-74 c -3.7,15.8 -7.5,31.6 -11.4,47.4"
         style="fill:#99A1AF;fill-opacity:1;fill-rule:nonzero;stroke:none"
         transform="matrix(0.13333333,0,0,-0.13333333,0,2666.6667)" />
      <path
         id="path57"
         d="m 13652,15743 c 14.4,-9.2 28.8,-18.5 43.1,-27.8 l -174.6,-268.2 c -13.7,8.9 -27.4,17.7 -41.1,26.5 l 172.6,269.5"
         style="fill:#99A1AF;fill-opacity:1;fill-rule:nonzero;stroke:none"
         transform="matrix(0.13333333,0,0,-0.13333333,0,2666.6667)" />
      <path
         id="path58"
         d="m 16359.3,11173.2 315,56.3 c 3,-16.8 6,-33.6 8.8,-50.4 l -315.4,-54 c -2.7,16 -5.5,32.1 -8.4,48.1"
         style="fill:#99A1AF;fill-opacity:1;fill-rule:nonzero;stroke:none"
         transform="matrix(0.13333333,0,0,-0.13333333,0,2666.6667)" />
      <path
         id="path59"
         d="m 13817.6,15241.5 189.3,258 c 13.8,-10.1 27.5,-20.3 41.2,-30.5 l -191.3,-256.5 c -13,9.7 -26.1,19.4 -39.2,29"
         style="fill:#99A1AF;fill-opacity:1;fill-rule:nonzero;stroke:none"
         transform="matrix(0.13333333,0,0,-0.13333333,0,2666.6667)" />
      <path
         id="path60"
         d="m 14734.4,14424.5 234.6,217.7 c 11.6,-12.5 23.1,-25 34.6,-37.6 l -236.1,-216 c -11,12 -22,24 -33.1,35.9"
         style="fill:#99A1AF;fill-opacity:1;fill-rule:nonzero;stroke:none"
         transform="matrix(0.13333333,0,0,-0.13333333,0,2666.6667)" />
      <path
         id="path61"
         d="m 15252.6,13790.4 260.1,186.5 c 9.9,-13.9 19.8,-27.8 29.6,-41.7 l -261.4,-184.5 c -9.4,13.3 -18.8,26.5 -28.3,39.7"
         style="fill:#99A1AF;fill-opacity:1;fill-rule:nonzero;stroke:none"
         transform="matrix(0.13333333,0,0,-0.13333333,0,2666.6667)" />
      <path
         id="path62"
         d="m 15480.6,13450.3 271.3,169.6 c 9.1,-14.4 18.1,-28.9 27,-43.4 l -272.6,-167.6 c -8.5,13.8 -17.1,27.6 -25.7,41.4"
         style="fill:#99A1AF;fill-opacity:1;fill-rule:nonzero;stroke:none"
         transform="matrix(0.13333333,0,0,-0.13333333,0,2666.6667)" />
      <path
         id="path63"
         d="m 14446.3,14715.9 220.3,232.1 c 12.4,-11.8 24.8,-23.6 37,-35.5 l -222.1,-230.3 c -11.7,11.3 -23.4,22.5 -35.2,33.7"
         style="fill:#99A1AF;fill-opacity:1;fill-rule:nonzero;stroke:none"
         transform="matrix(0.13333333,0,0,-0.13333333,0,2666.6667)" />
      <path
         id="path64"
         d="m 15003.6,14115.6 247.8,202.5 c 10.7,-13.2 21.5,-26.5 32.2,-39.8 l -249.3,-200.6 c -10.2,12.7 -20.4,25.3 -30.7,37.9"
         style="fill:#99A1AF;fill-opacity:1;fill-rule:nonzero;stroke:none"
         transform="matrix(0.13333333,0,0,-0.13333333,0,2666.6667)" />
      <path
         id="path65"
         d="m 14140.3,14988.6 205.2,245.5 c 13.1,-10.9 26.2,-21.9 39.2,-33 l -207.1,-243.9 c -12.4,10.5 -24.8,21 -37.3,31.4"
         style="fill:#99A1AF;fill-opacity:1;fill-rule:nonzero;stroke:none"
         transform="matrix(0.13333333,0,0,-0.13333333,0,2666.6667)" />
      <path
         id="path66"
         d="m 15686.6,13096.5 281.5,152.3 c 8.1,-15 16.1,-30.1 24.1,-45.1 l -282.7,-150 c -7.6,14.3 -15.2,28.6 -22.9,42.8"
         style="fill:#99A1AF;fill-opacity:1;fill-rule:nonzero;stroke:none"
         transform="matrix(0.13333333,0,0,-0.13333333,0,2666.6667)" />
      <path
         id="path67"
         d="m 13282.2,15963.5 c 15,-8.3 29.9,-16.6 44.8,-25 l -157.2,-278.7 c -14.2,8 -28.4,15.9 -42.7,23.8 l 155.1,279.9"
         style="fill:#99A1AF;fill-opacity:1;fill-rule:nonzero;stroke:none"
         transform="matrix(0.13333333,0,0,-0.13333333,0,2666.6667)" />
      <path
         id="path68"
         d="m 12147.9,16461.7 -101.2,-303.5 c -15.5,5.1 -30.9,10.2 -46.4,15.2 l 98.9,304.3 c 16.3,-5.2 32.5,-10.6 48.7,-16"
         style="fill:#99A1AF;fill-opacity:1;fill-rule:nonzero;stroke:none"
         transform="matrix(0.13333333,0,0,-0.13333333,0,2666.6667)" />
      <path
         id="path69"
         d="m 11735.7,16584.6 -81.5,-309.4 c -15.7,4.1 -31.5,8.2 -47.2,12.2 l 79.1,310.1 c 16.6,-4.3 33.1,-8.6 49.6,-12.9"
         style="fill:#99A1AF;fill-opacity:1;fill-rule:nonzero;stroke:none"
         transform="matrix(0.13333333,0,0,-0.13333333,0,2666.6667)" />
      <path
         id="path70"
         d="m 11316.7,16680.9 -61.7,-314 c -16,3.1 -31.9,6.2 -47.9,9.2 l 59.3,314.5 c 16.8,-3.2 33.5,-6.4 50.3,-9.7"
         style="fill:#99A1AF;fill-opacity:1;fill-rule:nonzero;stroke:none"
         transform="matrix(0.13333333,0,0,-0.13333333,0,2666.6667)" />
      <path
         id="path71"
         d="m 10892.4,16750.4 -41.7,-317.3 c -16.1,2.2 -32.3,4.2 -48.4,6.2 l 39.3,317.6 c 17,-2.1 33.9,-4.3 50.8,-6.5"
         style="fill:#99A1AF;fill-opacity:1;fill-rule:nonzero;stroke:none"
         transform="matrix(0.13333333,0,0,-0.13333333,0,2666.6667)" />
      <path
         id="path72"
         d="m 12945.3,16138 -139.1,-288.2 c -14.7,7.1 -29.4,14.1 -44.1,21.1 l 136.8,289.2 c 15.5,-7.3 31,-14.7 46.4,-22.1"
         style="fill:#99A1AF;fill-opacity:1;fill-rule:nonzero;stroke:none"
         transform="matrix(0.13333333,0,0,-0.13333333,0,2666.6667)" />
      <path
         id="path73"
         d="m 12551.4,16312.7 -120.3,-296.5 c -15.1,6.2 -30.3,12.2 -45.4,18.3 l 118,297.4 c 16,-6.3 31.9,-12.7 47.7,-19.2"
         style="fill:#99A1AF;fill-opacity:1;fill-rule:nonzero;stroke:none"
         transform="matrix(0.13333333,0,0,-0.13333333,0,2666.6667)" />
      <path
         id="path74"
         d="m 10464.7,16793 -21.7,-319.2 c -16.3,1.1 -32.5,2.1 -48.7,3.1 l 19.4,319.4 c 17,-1 34,-2.1 51,-3.3"
         style="fill:#99A1AF;fill-opacity:1;fill-rule:nonzero;stroke:none"
         transform="matrix(0.13333333,0,0,-0.13333333,0,2666.6667)" />
      <path
         id="path75"
         d="m 16451.9,9640.4 319.6,-15.9 c 0.8,17 1.6,34.1 2.3,51.1 l -319.7,13.6 c -0.7,-16.3 -1.4,-32.5 -2.2,-48.8"
         style="fill:#99A1AF;fill-opacity:1;fill-rule:nonzero;stroke:none"
         transform="matrix(0.13333333,0,0,-0.13333333,0,2666.6667)" />
      <path
         id="path76"
         d="m 15869.6,7269.3 290.6,-134 c 7.1,15.5 14.2,30.9 21.2,46.5 l -291.6,131.8 c -6.7,-14.8 -13.4,-29.5 -20.2,-44.3"
         style="fill:#99A1AF;fill-opacity:1;fill-rule:nonzero;stroke:none"
         transform="matrix(0.13333333,0,0,-0.13333333,0,2666.6667)" />
      <path
         id="path77"
         d="m 16164,8031.7 305.3,-96 c 5.1,16.3 10.2,32.6 15.2,48.9 l -306,93.7 c -4.8,-15.5 -9.6,-31.1 -14.5,-46.6"
         style="fill:#99A1AF;fill-opacity:1;fill-rule:nonzero;stroke:none"
         transform="matrix(0.13333333,0,0,-0.13333333,0,2666.6667)" />
      <path
         id="path78"
         d="m 16029,7645.9 298.5,-115.2 c 6.1,15.8 12.2,31.7 18.2,47.6 l -299.4,113 c -5.7,-15.1 -11.5,-30.2 -17.3,-45.4"
         style="fill:#99A1AF;fill-opacity:1;fill-rule:nonzero;stroke:none"
         transform="matrix(0.13333333,0,0,-0.13333333,0,2666.6667)" />
      <path
         id="path79"
         d="m 16418.5,9232.1 318,-36.1 c 1.9,17 3.8,33.9 5.6,50.9 l -318.3,33.7 c -1.7,-16.2 -3.4,-32.3 -5.3,-48.5"
         style="fill:#99A1AF;fill-opacity:1;fill-rule:nonzero;stroke:none"
         transform="matrix(0.13333333,0,0,-0.13333333,0,2666.6667)" />
      <path
         id="path80"
         d="m 16274.4,8426.2 310.7,-76.4 c 4.1,16.6 8.1,33.2 12.1,49.8 l -311.4,74 c -3.7,-15.8 -7.5,-31.6 -11.4,-47.4"
         style="fill:#99A1AF;fill-opacity:1;fill-rule:nonzero;stroke:none"
         transform="matrix(0.13333333,0,0,-0.13333333,0,2666.6667)" />
      <path
         id="path81"
         d="m 13652,4257 c 14.4,9.2 28.8,18.5 43.1,27.8 l -174.6,268.2 c -13.7,-8.9 -27.4,-17.7 -41.1,-26.5 L 13652,4257"
         style="fill:#99A1AF;fill-opacity:1;fill-rule:nonzero;stroke:none"
         transform="matrix(0.13333333,0,0,-0.13333333,0,2666.6667)" />
      <path
         id="path82"
         d="m 16359.3,8826.8 315,-56.3 c 3,16.8 6,33.6 8.8,50.4 l -315.4,54 c -2.7,-16 -5.5,-32.1 -8.4,-48.1"
         style="fill:#99A1AF;fill-opacity:1;fill-rule:nonzero;stroke:none"
         transform="matrix(0.13333333,0,0,-0.13333333,0,2666.6667)" />
      <path
         id="path83"
         d="m 13817.6,4758.5 189.3,-258 c 13.8,10.1 27.5,20.3 41.2,30.5 l -191.3,256.5 c -13,-9.7 -26.1,-19.4 -39.2,-29"
         style="fill:#99A1AF;fill-opacity:1;fill-rule:nonzero;stroke:none"
         transform="matrix(0.13333333,0,0,-0.13333333,0,2666.6667)" />
      <path
         id="path84"
         d="m 14734.4,5575.5 234.6,-217.7 c 11.6,12.5 23.1,25 34.6,37.6 l -236.1,216 c -11,-12 -22,-24 -33.1,-35.9"
         style="fill:#99A1AF;fill-opacity:1;fill-rule:nonzero;stroke:none"
         transform="matrix(0.13333333,0,0,-0.13333333,0,2666.6667)" />
      <path
         id="path85"
         d="m 15252.6,6209.6 260.1,-186.5 c 9.9,13.9 19.8,27.8 29.6,41.7 l -261.4,184.5 c -9.4,-13.3 -18.8,-26.5 -28.3,-39.7"
         style="fill:#99A1AF;fill-opacity:1;fill-rule:nonzero;stroke:none"
         transform="matrix(0.13333333,0,0,-0.13333333,0,2666.6667)" />
      <path
         id="path86"
         d="m 15480.6,6549.7 271.3,-169.6 c 9.1,14.4 18.1,28.9 27,43.4 l -272.6,167.6 c -8.5,-13.8 -17.1,-27.6 -25.7,-41.4"
         style="fill:#99A1AF;fill-opacity:1;fill-rule:nonzero;stroke:none"
         transform="matrix(0.13333333,0,0,-0.13333333,0,2666.6667)" />
      <path
         id="path87"
         d="m 14446.3,5284.1 220.3,-232.1 c 12.4,11.8 24.8,23.6 37,35.5 l -222.1,230.3 c -11.7,-11.3 -23.4,-22.5 -35.2,-33.7"
         style="fill:#99A1AF;fill-opacity:1;fill-rule:nonzero;stroke:none"
         transform="matrix(0.13333333,0,0,-0.13333333,0,2666.6667)" />
      <path
         id="path88"
         d="m 15003.6,5884.4 247.8,-202.5 c 10.7,13.2 21.5,26.5 32.2,39.8 l -249.3,200.6 c -10.2,-12.6 -20.4,-25.3 -30.7,-37.9"
         style="fill:#99A1AF;fill-opacity:1;fill-rule:nonzero;stroke:none"
         transform="matrix(0.13333333,0,0,-0.13333333,0,2666.6667)" />
      <path
         id="path89"
         d="m 14140.3,5011.4 205.2,-245.5 c 13.1,10.9 26.2,21.9 39.2,33 l -207.1,243.9 c -12.4,-10.5 -24.8,-21 -37.3,-31.4"
         style="fill:#99A1AF;fill-opacity:1;fill-rule:nonzero;stroke:none"
         transform="matrix(0.13333333,0,0,-0.13333333,0,2666.6667)" />
      <path
         id="path90"
         d="m 15686.6,6903.5 281.5,-152.2 c 8.1,14.9 16.1,30 24.1,45 l -282.7,150 c -7.6,-14.3 -15.2,-28.6 -22.9,-42.8"
         style="fill:#99A1AF;fill-opacity:1;fill-rule:nonzero;stroke:none"
         transform="matrix(0.13333333,0,0,-0.13333333,0,2666.6667)" />
      <path
         id="path91"
         d="m 13282.2,4036.5 c 15,8.3 29.9,16.6 44.8,25 l -157.2,278.7 c -14.2,-8 -28.4,-15.9 -42.7,-23.8 l 155.1,-279.9"
         style="fill:#99A1AF;fill-opacity:1;fill-rule:nonzero;stroke:none"
         transform="matrix(0.13333333,0,0,-0.13333333,0,2666.6667)" />
      <path
         id="path92"
         d="m 12147.9,3538.3 -101.2,303.5 c -15.5,-5.1 -30.9,-10.2 -46.4,-15.2 l 98.9,-304.3 c 16.3,5.2 32.5,10.6 48.7,16"
         style="fill:#99A1AF;fill-opacity:1;fill-rule:nonzero;stroke:none"
         transform="matrix(0.13333333,0,0,-0.13333333,0,2666.6667)" />
      <path
         id="path93"
         d="m 11735.7,3415.4 -81.5,309.4 c -15.7,-4.1 -31.5,-8.2 -47.2,-12.2 l 79.1,-310.1 c 16.6,4.3 33.1,8.6 49.6,12.9"
         style="fill:#99A1AF;fill-opacity:1;fill-rule:nonzero;stroke:none"
         transform="matrix(0.13333333,0,0,-0.13333333,0,2666.6667)" />
      <path
         id="path94"
         d="m 11316.7,3319.1 -61.7,314 c -16,-3.1 -31.9,-6.2 -47.9,-9.2 l 59.3,-314.5 c 16.8,3.2 33.5,6.4 50.3,9.7"
         style="fill:#99A1AF;fill-opacity:1;fill-rule:nonzero;stroke:none"
         transform="matrix(0.13333333,0,0,-0.13333333,0,2666.6667)" />
      <path
         id="path95"
         d="m 10892.4,3249.6 -41.7,317.3 c -16.1,-2.2 -32.3,-4.2 -48.4,-6.2 l 39.3,-317.6 c 17,2.1 33.9,4.3 50.8,6.5"
         style="fill:#99A1AF;fill-opacity:1;fill-rule:nonzero;stroke:none"
         transform="matrix(0.13333333,0,0,-0.13333333,0,2666.6667)" />
      <path
         id="path96"
         d="m 12945.3,3862 -139.1,288.2 c -14.7,-7.1 -29.4,-14.1 -44.1,-21.1 l 136.8,-289.2 c 15.5,7.3 31,14.7 46.4,22.1"
         style="fill:#99A1AF;fill-opacity:1;fill-rule:nonzero;stroke:none"
         transform="matrix(0.13333333,0,0,-0.13333333,0,2666.6667)" />
      <path
         id="path97"
         d="m 12551.4,3687.3 -120.3,296.5 c -15.1,-6.2 -30.3,-12.3 -45.4,-18.3 l 118,-297.4 c 16,6.3 31.9,12.7 47.7,19.2"
         style="fill:#99A1AF;fill-opacity:1;fill-rule:nonzero;stroke:none"
         transform="matrix(0.13333333,0,0,-0.13333333,0,2666.6667)" />
      <path
         id="path98"
         d="m 10464.7,3207 -21.7,319.2 c -16.3,-1.1 -32.5,-2.1 -48.7,-3.1 l 19.4,-319.4 c 17,1 34,2.1 51,3.3"
         style="fill:#99A1AF;fill-opacity:1;fill-rule:nonzero;stroke:none"
         transform="matrix(0.13333333,0,0,-0.13333333,0,2666.6667)" />
      <path
         id="path99"
         d="m 10000,16129.3 c -3379.71,0 -6129.3,-2749.6 -6129.3,-6129.3 0,-3379.7 2749.59,-6129.3 6129.3,-6129.3 3379.7,0 6129.3,2749.6 6129.3,6129.3 0,3379.7 -2749.6,6129.3 -6129.3,6129.3 z m 0,-12358.6 c -840.93,0 -1656.73,164.7 -2424.74,489.6 C 6833.48,4574 6167.29,5023.2 5595.23,5595.2 5023.15,6167.3 4574,6833.5 4260.25,7575.3 c -324.84,768 -489.55,1583.8 -489.55,2424.7 0,840.9 164.71,1656.7 489.55,2424.7 313.75,741.8 762.9,1408 1334.98,1980.1 572.06,572.1 1238.25,1021.2 1980.03,1335 768.01,324.8 1583.81,489.5 2424.74,489.5 840.9,0 1656.7,-164.7 2424.7,-489.5 741.8,-313.8 1408,-762.9 1980.1,-1335 572.1,-572.1 1021.2,-1238.3 1334.9,-1980.1 324.9,-768 489.6,-1583.8 489.6,-2424.7 0,-840.9 -164.7,-1656.7 -489.6,-2424.7 -313.7,-741.8 -762.8,-1408 -1334.9,-1980.1 -572.1,-572 -1238.3,-1021.2 -1980.1,-1334.9 -768,-324.9 -1583.8,-489.6 -2424.7,-489.6"
         style="fill:#99A1AF;fill-opacity:1;fill-rule:nonzero;stroke:none"
         transform="matrix(0.13333333,0,0,-0.13333333,0,2666.6667)" />
      <path
         id="path100"
         d="m 8945.84,2840.9 c -2.42,0 -4.87,0.1 -7.33,0.5 -1700.61,250 -3262.22,1105.4 -4397.16,2408.5 -561.57,644.7 -1000.21,1374.8 -1303.77,2169.9 -314.23,823.1 -473.56,1691.2 -473.56,2580.1 0,889 159.33,1757.1 473.56,2580.1 303.56,795.2 742.2,1525.3 1303.77,2170 1134.94,1303.1 2696.55,2158.4 4397.16,2408.4 27.23,4.1 52.72,-14.8 56.73,-42.1 4.02,-27.4 -14.87,-52.8 -42.19,-56.8 -3471.32,-510.3 -6089.03,-3545.3 -6089.03,-7059.6 0,-3514.2 2617.71,-6549.2 6089.03,-7059.6 27.32,-4 46.21,-29.4 42.19,-56.7 -3.65,-24.9 -25.01,-42.7 -49.4,-42.7"
         style="fill:#99A1AF;fill-opacity:1;fill-rule:nonzero;stroke:none"
         transform="matrix(0.13333333,0,0,-0.13333333,0,2666.6667)" />
      <path
         id="path101"
         d="m 11054.2,2840.9 c -24.4,0 -45.8,17.8 -49.4,42.7 -4.1,27.3 14.8,52.7 42.1,56.7 3471.4,510.4 6089.1,3545.4 6089.1,7059.6 0,3514.3 -2617.7,6549.3 -6089.1,7059.6 -27.3,4 -46.2,29.4 -42.1,56.8 4,27.3 29.4,46.2 56.7,42.1 1700.6,-250 3262.2,-1105.3 4397.1,-2408.4 561.6,-644.7 1000.3,-1374.8 1303.8,-2170 314.3,-823 473.6,-1691.1 473.6,-2580.1 0,-888.9 -159.3,-1757 -473.6,-2580.1 -303.5,-795.1 -742.2,-1525.2 -1303.8,-2169.9 -1134.9,-1303.1 -2696.5,-2158.5 -4397.1,-2408.5 -2.5,-0.4 -4.9,-0.5 -7.3,-0.5"
         style="fill:#99A1AF;fill-opacity:1;fill-rule:nonzero;stroke:none"
         transform="matrix(0.13333333,0,0,-0.13333333,0,2666.6667)" />
      <path
         id="path102"
         d="m 9163.72,17283.8 c -73.93,0 -134.08,-60.1 -134.08,-134 0,-74 60.15,-134.1 134.08,-134.1 73.92,0 134.06,60.1 134.06,134.1 0,73.9 -60.14,134 -134.06,134 z m 0,-368.1 c -129.07,0 -234.08,105 -234.08,234.1 0,129 105.01,234 234.08,234 129.06,0 234.06,-105 234.06,-234 0,-129.1 -105,-234.1 -234.06,-234.1"
         style="fill:#99A1AF;fill-opacity:1;fill-rule:nonzero;stroke:none"
         transform="matrix(0.13333333,0,0,-0.13333333,0,2666.6667)" />
      <path
         id="path103"
         d="m 9163.72,2995.8 c -73.93,0 -134.08,-60.1 -134.08,-134.1 0,-73.9 60.15,-134 134.08,-134 73.92,0 134.06,60.1 134.06,134 0,74 -60.14,134.1 -134.06,134.1 z m 0,-368.1 c -129.07,0 -234.08,105 -234.08,234 0,129.1 105.01,234.1 234.08,234.1 129.06,0 234.06,-105 234.06,-234.1 0,-129 -105,-234 -234.06,-234"
         style="fill:#99A1AF;fill-opacity:1;fill-rule:nonzero;stroke:none"
         transform="matrix(0.13333333,0,0,-0.13333333,0,2666.6667)" />
      <path
         id="path104"
         d="m 10857.5,17283.8 c -73.9,0 -134,-60.1 -134,-134 0,-74 60.1,-134.1 134,-134.1 74,0 134.1,60.1 134.1,134.1 0,73.9 -60.1,134 -134.1,134 z m 0,-368.1 c -129,0 -234,105 -234,234.1 0,129 105,234 234,234 129.1,0 234.1,-105 234.1,-234 0,-129.1 -105,-234.1 -234.1,-234.1"
         style="fill:#99A1AF;fill-opacity:1;fill-rule:nonzero;stroke:none"
         transform="matrix(0.13333333,0,0,-0.13333333,0,2666.6667)" />
      <path
         id="path105"
         d="m 10857.5,2995.8 c -73.9,0 -134,-60.1 -134,-134.1 0,-73.9 60.1,-134 134,-134 74,0 134.1,60.1 134.1,134 0,74 -60.1,134.1 -134.1,134.1 z m 0,-368.1 c -129,0 -234,105 -234,234 0,129.1 105,234.1 234,234.1 129.1,0 234.1,-105 234.1,-234.1 0,-129 -105,-234 -234.1,-234"
         style="fill:#99A1AF;fill-opacity:1;fill-rule:nonzero;stroke:none"
         transform="matrix(0.13333333,0,0,-0.13333333,0,2666.6667)" />
      <path
         id="path106"
         d="m 3941.75,9064 c -37.77,246.7 -60.34,497.5 -67.94,748.7 l -100.48,7.5 c 8.17,-285.7 35.69,-571 82.22,-850.6 2.76,-16.5 13.67,-30.6 29.04,-37.4 6.48,-2.9 13.39,-4.3 20.28,-4.3 9.43,0 18.82,2.6 27,7.9 297.21,190.6 495.55,491.6 556.1,831 l -100.27,7.5 C 4334.52,9491.1 4176.9,9237.8 3941.75,9064"
         style="fill:#99A1AF;fill-opacity:1;fill-rule:nonzero;stroke:none"
         transform="matrix(0.13333333,0,0,-0.13333333,0,2666.6667)" />
      <path
         id="path107"
         d="m 3938.63,10915.1 c 230.61,-169.3 387.22,-414.5 444.66,-689.7 l 100.45,7.5 c -65.49,331.5 -262.87,624 -555.43,810.3 -14.18,9 -31.95,10.3 -47.29,3.5 -15.35,-6.9 -26.21,-21 -28.92,-37.6 -44.43,-272.8 -70.81,-551 -78.78,-829.3 l 100.47,7.5 c 7.4,244 28.94,487.8 64.84,727.8"
         style="fill:#99A1AF;fill-opacity:1;fill-rule:nonzero;stroke:none"
         transform="matrix(0.13333333,0,0,-0.13333333,0,2666.6667)" />
      <path
         id="path108"
         d="m 16040,10915.1 c 35.8,-239.5 57.3,-482.7 64.7,-726.2 l 100.5,-7.5 c -8,277.8 -34.4,555.4 -78.7,827.7 -2.7,16.6 -13.6,30.7 -28.9,37.6 -15.4,6.8 -33.2,5.5 -47.3,-3.5 -292.1,-186 -489.3,-477.9 -555.1,-808.8 l 100.4,-7.5 c 57.7,274.7 214.2,519.3 444.4,688.2"
         style="fill:#99A1AF;fill-opacity:1;fill-rule:nonzero;stroke:none"
         transform="matrix(0.13333333,0,0,-0.13333333,0,2666.6667)" />
      <path
         id="path109"
         d="m 16036.8,9064 c -234.7,173.5 -392.1,426.2 -445.6,708.7 l -100.3,-7.4 c 60.9,-338.9 259.1,-639.2 555.8,-829.5 8.2,-5.3 17.6,-7.9 27,-7.9 6.9,0 13.8,1.4 20.3,4.3 15.4,6.8 26.3,20.9 29,37.4 46.5,279.1 74,563.8 82.2,849 l -100.5,-7.5 c -7.6,-250.7 -30.2,-501 -67.9,-747.1"
         style="fill:#99A1AF;fill-opacity:1;fill-rule:nonzero;stroke:none"
         transform="matrix(0.13333333,0,0,-0.13333333,0,2666.6667)" />
      <path
         id="path110"
         d="m 10914.9,16040.1 c -168.9,-230.1 -413.4,-386.5 -688,-444.3 l 7.5,-100.4 c 330.8,65.8 622.7,263 808.7,555 9,14.2 10.3,32 3.4,47.3 -6.9,15.4 -21,26.2 -37.6,28.9 -272.2,44.4 -549.8,70.7 -827.5,78.8 l 7.5,-100.5 c 243.4,-7.5 486.6,-29 726,-64.8"
         style="fill:#99A1AF;fill-opacity:1;fill-rule:nonzero;stroke:none"
         transform="matrix(0.13333333,0,0,-0.13333333,0,2666.6667)" />
      <path
         id="path111"
         d="m 9063.8,3941.9 c 173.88,235.2 427.25,392.8 710.5,446 l -7.48,100.3 c -339.53,-60.6 -640.51,-258.9 -831.2,-556.2 -9.08,-14.1 -10.44,-31.9 -3.62,-47.3 6.82,-15.3 20.91,-26.2 37.49,-29 279.59,-46.5 564.96,-74.1 850.66,-82.2 l -7.5,100.5 c -251.21,7.6 -502.11,30.1 -748.85,67.9"
         style="fill:#99A1AF;fill-opacity:1;fill-rule:nonzero;stroke:none"
         transform="matrix(0.13333333,0,0,-0.13333333,0,2666.6667)" />
      <path
         id="path112"
         d="m 10914.9,3938.8 c -239.9,-35.9 -483.7,-57.4 -727.5,-64.8 l -7.5,-100.5 c 278.2,8 556.3,34.3 829,78.8 16.6,2.7 30.7,13.5 37.6,28.9 6.9,15.3 5.6,33.1 -3.4,47.3 -186.3,292.5 -478.8,489.8 -810.2,555.4 l -7.5,-100.5 c 275.2,-57.5 520.3,-214.1 689.5,-444.6"
         style="fill:#99A1AF;fill-opacity:1;fill-rule:nonzero;stroke:none"
         transform="matrix(0.13333333,0,0,-0.13333333,0,2666.6667)" />
      <path
         id="path113"
         d="m 9063.8,16037 c 246.23,37.7 496.59,60.2 747.27,67.9 l -38.33,-513.6 c -282.62,53.5 -535.38,210.9 -708.94,445.7 z m 7143.8,-5987 H 11599 c -4,130.9 -23.9,257.9 -57.7,379.2 l 1928,-143.9 50.6,-3.7 50.4,-3.8 455.9,-34 50.3,-3.8 50.4,-3.7 1352.7,-101 99.7,-7.4 527.8,-39.4 100.2,-7.5 415.6,-31 z M 13444.1,9016 c 56.5,197.7 95.5,399.8 117,605.3 l 457.8,34.1 c -22.4,-263.1 -70.1,-519 -140.7,-765.4 z m -199.5,-532.7 c 19,40.6 37.4,81.4 54.9,122.8 52.9,124.9 98.1,252.1 136.1,381.2 l 434.2,-126.1 c -58.2,-197.3 -131,-388.4 -217.4,-572 z m -292.5,-510.9 c 101.9,147.9 192.4,303.3 271.1,465.7 l 407.7,-194 c -89.6,-184.4 -192.8,-361 -308.3,-528.5 z m -305.2,-384.3 c 104.1,114.1 200.2,234.1 288.1,359.6 l 370.5,-256.7 c -108.8,-155.3 -228.2,-302.6 -357.2,-440.9 z M 12052.3,7065 c 125.5,87.9 245.5,184 359.6,288.1 l 338,-301.4 c -138.3,-129 -285.6,-248.4 -440.9,-357.2 z m -490.4,-288.2 c 162.4,78.7 317.8,169.2 465.7,271.1 l 256.8,-370.5 c -167.5,-115.5 -344.1,-218.7 -528.5,-308.3 z m -549.2,-212.4 c 129.1,38 256.3,83.2 381.2,136.1 41.4,17.5 82.2,35.9 122.8,54.9 l 194.1,-407.8 c -183.6,-86.4 -374.7,-159.2 -572,-217.4 z m -2529.39,191 c 40.56,-19 81.41,-37.4 122.8,-54.9 124.93,-52.9 252.12,-98.1 381.15,-136.1 l -126.02,-434.2 c -197.35,58.2 -388.46,131 -572.05,217.4 z m -510.95,292.5 c 147.97,-101.9 303.38,-192.4 465.75,-271.1 l -194.03,-407.7 c -184.41,89.6 -361.01,192.8 -528.49,308.3 z m -384.27,305.2 c 114.09,-104.1 234.13,-200.2 359.6,-288.1 l -256.73,-370.5 c -155.27,108.8 -302.59,228.2 -440.83,357.2 z m -523.13,594.6 c 87.93,-125.5 184,-245.5 288.15,-359.6 l -301.38,-338 c -129.02,138.3 -248.43,285.6 -357.22,440.9 z m -288.19,490.4 c 78.69,-162.4 169.28,-317.8 271.12,-465.7 l -370.52,-256.8 c -115.51,167.5 -218.7,344.1 -308.24,528.5 z m -212.38,549.2 c 38.04,-129.1 83.23,-256.3 136.07,-381.2 17.51,-41.4 35.97,-82.2 54.94,-122.8 l -407.83,-194.1 c -86.34,183.6 -159.22,374.7 -217.39,572 z m -125.51,634 c 21.51,-205.5 60.54,-407.6 117,-605.3 l -434.09,-126 c -70.62,246.4 -118.3,502.3 -140.66,765.4 z m 117,1362.7 c -56.46,-197.7 -95.49,-399.8 -117,-605.2 l -457.75,-34.2 c 22.36,263.1 70.04,519 140.66,765.4 z m 199.52,532.7 c -18.97,-40.6 -37.43,-81.4 -54.94,-122.8 -52.84,-124.9 -98.03,-252.1 -136.07,-381.2 l -434.21,126.1 c 58.17,197.3 131.05,388.4 217.39,572 z m 292.49,510.9 c -101.84,-147.9 -192.43,-303.3 -271.12,-465.7 l -407.64,194 c 89.54,184.4 192.73,361 308.24,528.5 z m 305.22,384.3 c -104.15,-114.1 -200.22,-234.1 -288.15,-359.6 l -370.45,256.7 c 108.79,155.3 228.2,302.6 357.22,440.9 z m 594.58,523.1 c -125.47,-87.9 -245.51,-184 -359.6,-288.1 l -337.96,301.4 c 138.24,129 285.56,248.4 440.83,357.2 z m 490.42,288.2 c -162.37,-78.7 -317.78,-169.3 -465.75,-271.1 l -256.77,370.5 c 167.48,115.5 344.08,218.7 528.49,308.3 z m 549.15,212.4 c -129.03,-38 -256.22,-83.2 -381.15,-136.1 -41.39,-17.5 -82.24,-35.9 -122.8,-54.9 l -194.12,407.8 c 183.59,86.4 374.7,159.3 572.05,217.4 z m 2529.44,-191 c -40.6,19 -81.4,37.4 -122.8,54.9 -124.9,52.9 -252.1,98.1 -381.2,136.1 l 126.1,434.2 c 197.3,-58.1 388.4,-131 572,-217.4 z m 510.9,-292.5 c -147.9,101.8 -303.3,192.4 -465.7,271.1 l 194,407.7 c 184.4,-89.6 361,-192.8 528.5,-308.3 z m 384.3,-305.2 c -114.1,104.1 -234.1,200.2 -359.6,288.1 l 256.7,370.5 c 155.3,-108.8 302.6,-228.2 440.9,-357.2 z m 523.1,-594.6 c -87.9,125.5 -184,245.5 -288.1,359.6 l 301.4,338 c 129,-138.3 248.4,-285.6 357.2,-440.9 z m 288.2,-490.4 c -78.7,162.4 -169.2,317.8 -271.1,465.7 l 370.5,256.8 c 115.5,-167.5 218.7,-344.1 308.3,-528.5 z m 212.4,-549.2 c -38,129.1 -83.2,256.3 -136.1,381.2 -17.5,41.4 -35.9,82.2 -54.9,122.8 l 407.8,194.1 c 86.4,-183.6 159.2,-374.7 217.4,-572 z m 125.5,-633.9 c -21.5,205.4 -60.5,407.5 -117,605.2 l 434.1,126 c 70.6,-246.4 118.3,-502.3 140.7,-765.4 z m -213.6,577.1 c 52.7,-184.1 90.5,-374.4 112.1,-569.6 l -1650.4,123.2 z m -1838.7,-424 c -16,45.3 -33.9,89.7 -53.8,133 l 1698.6,808.5 c 73.5,-156.9 135.7,-320.2 185.5,-488.7 l -1615.5,-468.8 z m -167.6,415.8 1237.7,1388 c 97.7,-107.9 188.8,-221.9 272.6,-341.3 z m -18.2,-49.1 1545.6,1071.2 c 98.6,-143.1 186.7,-293.9 263.4,-451.4 L 11433.4,10710 c -32.6,65.5 -69.5,128.5 -110.4,188.6 z m -813.5,910.6 -123.2,1650.4 c 195.2,-21.6 385.5,-59.4 569.6,-112.1 z m 155.4,-354.2 c -43.4,19.9 -87.7,37.8 -133,53.8 l -16,214.8 468.8,1615.5 c 168.5,-49.8 331.8,-112 488.6,-185.5 z m 233.7,-132 c -60.1,40.9 -123.1,77.8 -188.6,110.4 l 808.4,1698.6 c 157.5,-76.7 308.3,-164.8 451.4,-263.4 z m 1095.8,1528.5 c 119.4,-83.8 233.4,-174.9 341.3,-272.6 l -1388,-1237.7 z M 9052.29,11341.2 7664.35,12578.9 c 107.82,97.7 221.8,188.8 341.25,272.6 z m 237.75,92.2 c -65.54,-32.6 -128.56,-69.5 -188.64,-110.4 l -1071.17,1545.6 c 143.1,98.6 293.91,186.7 451.32,263.4 z m -245.97,1914.1 c 184.13,52.7 374.47,90.5 569.61,112.1 l -123.16,-1650.4 z m 440.07,-1623.9 -16.03,-214.8 c -45.29,-16 -89.66,-33.9 -132.98,-53.8 l -808.48,1698.6 c 156.88,73.5 320.11,135.7 488.62,185.5 z m -2335.63,270.8 c 83.79,119.4 174.86,233.4 272.61,341.3 l 1237.69,-1388 z m 1528.52,-1095.8 c -40.94,-60.1 -77.84,-123.1 -110.43,-188.6 l -1698.57,808.4 c 76.63,157.5 164.78,308.3 263.35,451.4 z m -486.25,-389.1 -1650.39,-123.2 c 21.64,195.2 59.45,385.5 112.11,569.6 z m -1529.89,475.2 c 49.78,168.5 111.97,331.8 185.56,488.7 L 8545,10664.9 c -19.87,-43.3 -37.83,-87.7 -53.84,-133 l -214.76,-16 z M 8658.81,9052.3 7421.12,7664.4 c -97.75,107.8 -188.82,221.8 -272.61,341.2 z M 8566.6,9290 c 32.59,-65.5 69.49,-128.5 110.43,-188.6 L 7131.38,8030.2 c -98.57,143.1 -186.72,293.9 -263.35,451.4 z m -290.21,194.1 214.77,-16 c 16.01,-45.3 33.97,-89.6 53.84,-133 L 6846.45,8526.7 c -73.59,156.8 -135.79,320.1 -185.56,488.6 z m -1623.89,-440 c -52.67,184.1 -90.47,374.4 -112.11,569.6 l 1650.39,-123.2 z m 2838.02,-853.3 123.16,-1650.4 c -195.14,21.6 -385.48,59.4 -569.61,112.1 z M 9335.13,8545 c 43.32,-19.9 87.69,-37.8 132.98,-53.8 l 16.03,-214.8 -468.87,-1615.5 c -168.51,49.8 -331.74,112 -488.62,185.5 z m -233.73,132 c 60.08,-40.9 123.1,-77.8 188.64,-110.4 L 8481.55,6868 c -157.41,76.7 -308.22,164.8 -451.32,263.4 z M 8005.6,7148.5 c -119.44,83.8 -233.43,174.9 -341.25,272.6 l 1387.94,1237.7 z m 2942.1,1510.3 1388,-1237.7 c -107.9,-97.7 -221.9,-188.8 -341.3,-272.6 z m -237.7,-92.2 c 65.5,32.6 128.5,69.5 188.6,110.4 l 1071.2,-1545.6 c -143.1,-98.6 -293.9,-186.7 -451.4,-263.4 z m 245.9,-1914.1 c -184.1,-52.7 -374.4,-90.5 -569.6,-112.1 l 123.2,1650.4 z m -440,1623.9 16,214.8 c 45.3,16 89.6,33.9 133,53.8 l 808.4,-1698.6 c -156.8,-73.5 -320.1,-135.7 -488.6,-185.5 z m 2335.6,-270.8 c -83.8,-119.4 -174.9,-233.4 -272.6,-341.2 L 11341.2,9052.3 Z M 11323,9101.4 c 40.9,60.1 77.8,123.1 110.4,188.6 L 13132,8481.6 c -76.7,-157.5 -164.8,-308.3 -263.4,-451.4 z m 486.2,389.1 1650.4,123.2 c -21.6,-195.2 -59.4,-385.5 -112.1,-569.6 z m 1529.9,-475.2 c -49.8,-168.5 -112,-331.8 -185.6,-488.6 L 11455,9335.1 c 19.9,43.4 37.8,87.7 53.8,133 l 214.8,16 z m -1839.2,984.7 c 0,-16.7 -0.4,-33.4 -1,-50 -4,-122.1 -22.6,-240.6 -54.3,-353.7 -2.7,-9.6 -5.5,-19.2 -8.4,-28.7 -0.5,-1.6 -0.9,-3.2 -1.4,-4.7 -5.3,-17.3 -10.8,-34.4 -16.7,-51.4 -6,-17.3 -12.3,-34.5 -18.9,-51.6 -10.7,-27.6 -22.2,-54.9 -34.5,-81.8 -6.9,-15.2 -14.2,-30.2 -21.6,-45.1 -29.6,-59.3 -62.9,-116.5 -99.8,-171 -0.8,-1.2 -1.7,-2.4 -2.5,-3.7 -5.6,-8.2 -11.3,-16.5 -17.1,-24.6 -3.3,-4.6 -6.6,-9.1 -9.9,-13.7 -10,-13.7 -20.2,-27.3 -30.7,-40.7 -76.3,-97.9 -164.5,-186.1 -262.4,-262.4 -13.4,-10.5 -27,-20.7 -40.7,-30.7 -4.6,-3.3 -9.1,-6.6 -13.7,-9.9 -8.1,-5.8 -16.4,-11.5 -24.6,-17.1 -1.3,-0.8 -2.5,-1.7 -3.7,-2.5 -54.5,-36.9 -111.7,-70.2 -171,-99.8 -14.9,-7.4 -29.9,-14.7 -45.1,-21.6 -26.9,-12.3 -54.2,-23.8 -81.8,-34.5 -17.1,-6.6 -34.2,-12.9 -51.6,-18.9 -17,-5.9 -34.1,-11.4 -51.4,-16.7 -1.5,-0.5 -3.1,-0.9 -4.7,-1.4 -9.5,-2.9 -19.1,-5.7 -28.7,-8.4 -113.1,-31.7 -231.6,-50.3 -353.7,-54.3 -16.6,-0.6 -33.3,-1 -50,-1 -16.74,0 -33.39,0.4 -50,1 -122.1,4 -240.55,22.6 -353.65,54.3 -9.65,2.7 -19.24,5.5 -28.8,8.4 -1.56,0.5 -3.13,0.9 -4.68,1.4 -17.27,5.3 -34.4,10.8 -51.39,16.7 -17.33,6 -34.51,12.3 -51.55,18.9 -27.68,10.7 -54.97,22.2 -81.82,34.5 -15.18,6.9 -30.19,14.2 -45.09,21.6 -59.32,29.6 -116.48,62.9 -171.03,99.8 -1.23,0.8 -2.43,1.7 -3.65,2.5 -8.27,5.6 -16.5,11.3 -24.65,17.1 -4.6,3.3 -9.12,6.6 -13.67,9.9 -13.76,10 -27.37,20.2 -40.77,30.7 -97.87,76.3 -186.05,164.5 -262.39,262.4 -10.45,13.4 -20.64,27 -30.64,40.7 -3.31,4.6 -6.67,9.1 -9.93,13.7 -5.79,8.1 -11.47,16.4 -17.1,24.6 -0.84,1.3 -1.7,2.5 -2.54,3.7 -36.88,54.5 -70.18,111.7 -99.76,171 -7.43,14.9 -14.66,29.9 -21.6,45.1 -12.29,26.9 -23.78,54.2 -34.5,81.8 -6.6,17.1 -12.9,34.3 -18.89,51.6 -5.87,17 -11.44,34.1 -16.71,51.4 -0.47,1.5 -0.92,3.1 -1.4,4.7 -2.88,9.5 -5.71,19.1 -8.41,28.7 -31.64,113.1 -50.29,231.6 -54.31,353.7 -0.55,16.6 -0.92,33.3 -0.92,50 0,16.7 0.37,33.4 0.92,50 4.02,122.1 22.67,240.6 54.31,353.7 2.7,9.6 5.53,19.2 8.41,28.7 0.48,1.6 0.93,3.2 1.4,4.7 5.27,17.3 10.84,34.4 16.71,51.4 5.99,17.4 12.29,34.5 18.89,51.6 10.72,27.6 22.21,54.9 34.5,81.8 6.94,15.2 14.17,30.2 21.6,45.1 29.58,59.3 62.88,116.5 99.76,171 0.83,1.2 1.7,2.4 2.54,3.7 5.62,8.2 11.31,16.5 17.1,24.6 3.26,4.6 6.62,9.1 9.93,13.7 10,13.7 20.19,27.4 30.64,40.8 76.34,97.8 164.52,186 262.39,262.3 13.4,10.5 27.01,20.7 40.76,30.7 4.56,3.3 9.08,6.6 13.68,9.9 8.15,5.8 16.38,11.5 24.65,17.1 1.22,0.8 2.42,1.7 3.65,2.5 54.55,36.9 111.7,70.2 171.03,99.8 14.9,7.4 29.91,14.7 45.09,21.6 26.85,12.3 54.14,23.8 81.82,34.5 17.04,6.6 34.22,12.9 51.55,18.9 16.99,5.9 34.12,11.4 51.39,16.7 1.55,0.5 3.12,0.9 4.68,1.4 9.56,2.9 19.15,5.7 28.8,8.4 113.09,31.7 231.55,50.3 353.65,54.3 16.61,0.6 33.26,1 50,1 16.7,0 33.4,-0.4 50,-1 122.1,-4 240.6,-22.6 353.7,-54.3 9.6,-2.7 19.2,-5.5 28.8,-8.4 1.5,-0.5 3.1,-0.9 4.6,-1.4 17.3,-5.3 34.4,-10.8 51.4,-16.7 17.4,-6 34.5,-12.3 51.6,-18.9 27.6,-10.7 54.9,-22.2 81.8,-34.5 15.2,-6.9 30.2,-14.2 45.1,-21.6 59.3,-29.6 116.5,-62.9 171,-99.8 1.2,-0.8 2.4,-1.7 3.7,-2.5 8.2,-5.6 16.5,-11.3 24.6,-17.1 4.6,-3.3 9.1,-6.6 13.7,-9.9 13.7,-10 27.3,-20.2 40.7,-30.7 97.9,-76.3 186.1,-164.5 262.4,-262.3 10.5,-13.4 20.7,-27.1 30.7,-40.8 3.3,-4.6 6.6,-9.1 9.9,-13.7 5.8,-8.1 11.5,-16.4 17.1,-24.6 0.8,-1.3 1.7,-2.5 2.5,-3.7 36.9,-54.5 70.2,-111.7 99.8,-171 7.4,-14.9 14.7,-29.9 21.6,-45.1 12.3,-26.9 23.8,-54.2 34.5,-81.8 6.6,-17.1 12.9,-34.2 18.9,-51.6 5.9,-17 11.4,-34.1 16.7,-51.4 0.5,-1.5 0.9,-3.1 1.4,-4.7 2.9,-9.5 5.7,-19.1 8.4,-28.7 31.7,-113.1 50.3,-231.6 54.3,-353.7 0.6,-16.6 1,-33.3 1,-50 z m 1845.1,3344.9 -398.3,-446.5 -33.2,-37.2 -34.6,-38.8 -300.8,-337.4 -33.3,-37.3 -34.4,-38.6 -1259.7,-1412.6 c -75,93.9 -160.3,179.2 -254.2,254.2 l 1412.6,1259.7 38.6,34.4 37.3,33.3 337.3,300.8 38.8,34.6 37.3,33.2 z m -2235,533.3 -126,-434.1 c -197.7,56.5 -399.8,95.5 -605.2,117 l -34.2,457.8 c 263.1,-22.4 519,-70.1 765.4,-140.7 z m -1029,2329.2 7.5,-100.2 39.4,-527.7 7.4,-99.7 101,-1352.9 3.7,-50.4 3.8,-50.3 34,-455.8 3.7,-50.5 3.8,-50.6 143.9,-1928 c -121.3,33.8 -248.3,53.6 -379.2,57.7 v 1881.6 50 49.8 452.8 50 50 1339.5 100.1 534.8 100.2 415.1 z m -317.25,-2080.5 100.75,1350.3 7.45,99.8 39.57,530.2 7.48,100.2 31,415.5 v -415.1 -100.2 -535.8 -100.1 -1338.5 -50 -50 -452.8 -49.8 -50 -1881.6 c -130.93,-4.1 -257.93,-23.9 -379.19,-57.7 l 143.87,1928 3.77,50.6 3.77,50.5 34.01,455.8 3.76,50.3 z m -108.34,-108 -34.16,-457.8 c -205.43,-21.5 -407.53,-60.5 -605.22,-117 l -125.99,434.1 c 246.36,70.6 502.31,118.3 765.37,140.7 z m -2553.8,-1072.2 37.24,-33.2 38.8,-34.6 337.32,-300.8 37.33,-33.3 38.64,-34.4 1412.59,-1259.7 c -93.92,-75 -179.22,-160.3 -254.2,-254.2 l -1259.69,1412.6 -34.46,38.6 -33.29,37.3 -300.8,337.4 -34.61,38.8 -33.2,37.2 -398.23,446.5 z m -3330.34,-2867.3 100.24,7.5 527.97,39.4 99.69,7.4 1373.96,102.6 50.36,3.7 50.33,3.8 455.83,34 50.49,3.8 50.54,3.7 1928.01,143.9 c -33.8,-121.3 -53.64,-248.3 -57.68,-379.2 h -1881.59 -50.02 -49.75 -452.86 -50 -50.01 -1360.77 -100.05 -534.79 -100.21 -393.87 z m 730.44,-213.3 -99.83,7.4 -530.35,39.6 -100.27,7.5 -394.17,29.4 h 393.87 100.22 535.8 100.08 1359.72 50.01 50 452.86 49.75 50.02 1881.59 c 4.04,-130.9 23.88,-257.9 57.68,-379.2 l -1928.01,143.9 -50.54,3.8 -50.49,3.7 -455.83,34 -50.33,3.8 -50.36,3.7 z m 2153.34,-3211 398.23,446.5 33.2,37.3 34.61,38.8 300.8,337.3 33.29,37.3 34.46,38.6 1259.69,1412.6 c 74.98,-93.9 160.29,-179.2 254.2,-254.2 l -1412.59,-1259.7 -38.64,-34.4 -37.34,-33.3 -337.31,-300.8 -38.8,-34.6 -37.24,-33.2 z m 2234.99,-533.3 125.99,434.1 c 197.69,-56.5 399.79,-95.5 605.22,-117 l 34.16,-457.8 c -263.06,22.4 -519.01,70.1 -765.37,140.7 z m 1030.54,-2350.4 -7.49,100.3 -39.57,530.4 -7.45,99.8 -102.32,1371.2 -3.76,50.4 -3.76,50.3 -34.01,455.8 -3.77,50.5 -3.77,50.6 -143.87,1928 C 9692.07,8424.9 9819.07,8405 9950,8401 v -1881.6 -50 -49.8 -452.8 -50 -50 -1359.6 -100.1 -535.8 -100.2 -394 z m 315.72,2101.7 -102.6,-1373.8 -7.4,-99.7 -39.4,-527.9 -7.5,-100.3 -29.4,-394.3 v 394 100.2 534.8 100.1 1360.6 50 50 452.8 49.8 50 1881.6 c 130.9,4 257.9,23.9 379.2,57.7 l -143.9,-1928 -3.8,-50.6 -3.7,-50.5 -34,-455.8 -3.8,-50.3 z m 108.3,108 34.2,457.8 c 205.4,21.5 407.5,60.5 605.2,117 l 126,-434.1 c -246.4,-70.6 -502.3,-118.3 -765.4,-140.7 z m 2553.8,1072.2 -37.3,33.2 -38.8,34.6 -337.3,300.8 -37.3,33.3 -38.6,34.4 -1412.6,1259.7 c 93.9,75 179.2,160.3 254.2,254.2 l 1259.7,-1412.6 34.4,-38.6 33.3,-37.3 300.8,-337.3 34.6,-38.8 33.2,-37.3 398.3,-446.5 z m 3308.9,2865.7 -100.3,-7.5 -530.1,-39.6 -99.9,-7.4 -1350.1,-100.8 -50.4,-3.7 -50.3,-3.8 -455.9,-34 -50.4,-3.7 -50.6,-3.8 -1928,-143.9 c 33.8,121.3 53.7,248.3 57.7,379.2 h 1881.6 50 49.8 452.8 50 50 1338.3 100.1 535.8 100.2 415.3 z m 1806.6,90.8 c -0.2,1.2 -0.7,2.2 -1,3.3 -0.5,2 -1,4 -1.8,5.9 -0.5,1.2 -1.2,2.3 -1.8,3.5 -0.8,1.6 -1.6,3.3 -2.6,4.8 -0.8,1.2 -1.7,2.2 -2.5,3.3 -1.1,1.4 -2.1,2.8 -3.4,4.1 -0.9,1 -2,1.8 -3.1,2.7 -1.3,1.2 -2.6,2.3 -4,3.4 -1.1,0.8 -2.4,1.4 -3.6,2.2 -1.5,0.8 -3,1.7 -4.6,2.4 -1.3,0.6 -2.7,1.1 -4.1,1.6 -1.6,0.6 -3.2,1.1 -4.9,1.5 -1.5,0.4 -3,0.6 -4.6,0.8 -1.1,0.1 -2.1,0.5 -3.3,0.6 l -1763.4,131.5 -100.5,7.5 -509.1,38 -100.4,7.5 -1375.2,102.7 c -21.9,272.4 -70.3,540 -145,801 l 1032.8,299.7 c 7.9,2.3 12.5,10.6 10.2,18.6 -2.3,7.9 -10.6,12.5 -18.6,10.2 l -1032.7,-299.7 c -44.1,149.7 -96.7,297.2 -158,442.1 -20.7,48.9 -42.6,97.3 -65.1,145.2 l 1853.3,882.1 c 12.4,6 17.7,20.9 11.8,33.3 -5.9,12.5 -20.8,17.8 -33.3,11.9 l -1853.1,-882.1 c -91.6,189.4 -197.2,370.6 -316,543 l 884.5,613 c 6.8,4.7 8.5,14 3.8,20.9 -4.7,6.8 -14.1,8.5 -20.9,3.7 l -884.5,-612.9 c -112.7,161 -237.2,314.2 -373,459 l 985,1104.5 c 17.6,19.8 16.8,49.9 -2,68.7 -18.7,18.7 -48.8,19.6 -68.6,1.9 l -1104.5,-985 c -144.8,135.8 -298,260.3 -459,373.1 l 612.9,884.4 c 4.8,6.8 3.1,16.2 -3.7,20.9 -6.9,4.7 -16.2,3 -20.9,-3.8 l -613,-884.5 c -172.4,118.8 -353.6,224.4 -543,316 l 882.1,1853.1 c 5.9,12.4 0.6,27.4 -11.9,33.3 -12.4,5.9 -27.3,0.6 -33.3,-11.8 l -882.1,-1853.3 c -47.9,22.5 -96.3,44.4 -145.2,65.1 -144.9,61.3 -292.4,113.9 -442.1,158 l 299.7,1032.7 c 2.3,8 -2.3,16.3 -10.2,18.6 -8,2.3 -16.3,-2.3 -18.6,-10.2 L 11138.1,13975 c -261,74.7 -528.6,123.2 -801.1,145 l -102.6,1375.4 -7.5,100.4 -38,509.1 -7.5,100.5 -131.5,1763.2 c -0.1,1.2 -0.4,2.2 -0.6,3.3 -0.2,1.6 -0.4,3.1 -0.8,4.6 -0.4,1.7 -0.9,3.3 -1.5,4.9 -0.5,1.4 -1,2.8 -1.6,4.2 -0.7,1.5 -1.6,3 -2.4,4.5 -0.8,1.2 -1.4,2.5 -2.3,3.6 -1,1.4 -2.1,2.7 -3.3,4.1 -0.9,1 -1.8,2.1 -2.7,3 -1.3,1.3 -2.7,2.3 -4.2,3.4 -1,0.8 -2,1.7 -3.2,2.5 -1.5,1 -3.2,1.8 -4.8,2.6 -1.2,0.6 -2.3,1.3 -3.5,1.8 -1.9,0.8 -3.9,1.3 -5.9,1.8 -1.1,0.3 -2.1,0.8 -3.3,1 -3.2,0.6 -6.4,1 -9.8,1 -3.36,0 -6.64,-0.4 -9.82,-1 -1.14,-0.2 -2.19,-0.7 -3.3,-1 -1.99,-0.5 -3.99,-1 -5.88,-1.8 -1.22,-0.5 -2.33,-1.2 -3.5,-1.8 -1.64,-0.8 -3.31,-1.6 -4.84,-2.6 -1.13,-0.8 -2.14,-1.7 -3.21,-2.5 -1.4,-1.1 -2.83,-2.1 -4.11,-3.4 -0.99,-0.9 -1.84,-2 -2.75,-3 -1.15,-1.4 -2.32,-2.7 -3.34,-4.1 -0.82,-1.1 -1.5,-2.4 -2.22,-3.6 -0.87,-1.5 -1.73,-3 -2.45,-4.5 -0.61,-1.4 -1.08,-2.8 -1.58,-4.2 -0.56,-1.6 -1.1,-3.2 -1.5,-4.9 -0.36,-1.5 -0.57,-3 -0.79,-4.6 -0.16,-1.1 -0.49,-2.1 -0.57,-3.3 l -131.58,-1763.2 c -285.16,-8.3 -569.99,-35.8 -849.07,-82.2 -16.58,-2.8 -30.67,-13.7 -37.49,-29.1 -6.82,-15.3 -5.46,-33.1 3.62,-47.2 190.4,-296.8 490.75,-495 829.64,-555.9 l -102.31,-1371 c -272.43,-21.8 -540.04,-70.3 -801,-145 l -299.75,1032.8 c -2.31,7.9 -10.61,12.5 -18.58,10.2 -7.96,-2.3 -12.54,-10.6 -10.23,-18.6 l 299.74,-1032.7 c -149.7,-44.1 -297.19,-96.7 -442.1,-158 -48.96,-20.7 -97.28,-42.6 -145.24,-65.1 l -882.11,1853.3 c -5.94,12.4 -20.83,17.7 -33.32,11.8 -12.47,-5.9 -17.76,-20.9 -11.83,-33.3 l 882.03,-1853.1 c -189.38,-91.6 -370.55,-197.2 -542.97,-316 l -612.97,884.5 c -4.72,6.8 -14.05,8.5 -20.87,3.8 -6.81,-4.7 -8.5,-14.1 -3.78,-20.9 l 612.95,-884.4 c -161.05,-112.8 -314.24,-237.3 -458.99,-373.1 l -1104.55,985 c -19.78,17.7 -49.88,16.8 -68.63,-1.9 -18.74,-18.8 -19.6,-48.9 -1.96,-68.7 l 984.99,-1104.5 c -135.81,-144.8 -260.31,-298 -373.03,-459 l -884.46,612.9 c -6.81,4.8 -16.15,3.1 -20.87,-3.7 -4.72,-6.9 -3.02,-16.2 3.78,-20.9 l 884.48,-613 c -118.82,-172.4 -224.42,-353.6 -315.99,-543 l -1853.07,882.1 c -12.48,5.9 -27.39,0.6 -33.32,-11.9 -5.93,-12.4 -0.64,-27.3 11.83,-33.3 l 1853.24,-882.1 c -22.48,-47.9 -44.33,-96.3 -65.04,-145.2 -61.3,-144.9 -113.97,-292.4 -158.01,-442.1 l -1032.74,299.7 c -7.96,2.3 -16.28,-2.3 -18.59,-10.2 -2.31,-8 2.27,-16.3 10.23,-18.6 L 6025,11138.1 c -74.7,-261 -123.15,-528.6 -145,-801.1 l -1396.26,-104.1 -100.45,-7.5 -509.5,-38.1 -100.46,-7.5 -1741.94,-129.9 c -1.15,-0.1 -2.21,-0.5 -3.33,-0.6 -1.54,-0.2 -3.08,-0.4 -4.58,-0.8 -1.66,-0.4 -3.27,-0.9 -4.87,-1.5 -1.4,-0.5 -2.81,-1 -4.16,-1.6 -1.57,-0.7 -3.05,-1.6 -4.53,-2.4 -1.22,-0.8 -2.48,-1.4 -3.63,-2.2 -1.43,-1.1 -2.73,-2.2 -4.04,-3.4 -1.03,-0.9 -2.12,-1.7 -3.07,-2.7 -1.23,-1.3 -2.29,-2.7 -3.38,-4.1 -0.84,-1.1 -1.74,-2.1 -2.49,-3.3 -1,-1.5 -1.78,-3.2 -2.62,-4.8 -0.59,-1.2 -1.29,-2.3 -1.8,-3.5 -0.77,-1.9 -1.28,-3.9 -1.82,-5.9 -0.3,-1.1 -0.74,-2.1 -0.97,-3.3 -0.64,-3.2 -0.99,-6.4 -0.99,-9.8 0,-3.4 0.35,-6.6 0.99,-9.8 0.23,-1.2 0.67,-2.2 0.98,-3.3 0.54,-2 1.04,-4 1.81,-5.9 0.51,-1.2 1.21,-2.4 1.82,-3.5 0.82,-1.7 1.6,-3.3 2.6,-4.8 0.75,-1.2 1.66,-2.2 2.5,-3.3 1.09,-1.4 2.14,-2.8 3.37,-4.1 0.95,-0.9 2.04,-1.8 3.07,-2.7 1.31,-1.2 2.61,-2.3 4.04,-3.3 1.15,-0.9 2.4,-1.5 3.63,-2.3 1.48,-0.8 2.96,-1.7 4.54,-2.4 1.33,-0.6 2.74,-1.1 4.13,-1.6 1.62,-0.6 3.23,-1.1 4.91,-1.5 1.48,-0.4 3,-0.6 4.53,-0.8 1.13,-0.1 2.2,-0.5 3.36,-0.6 l 1741.94,-129.9 100.48,-7.5 513.89,-38.4 100.27,-7.5 L 5880,9663 c 21.85,-272.5 70.3,-540.1 145,-801 L 4992.22,8562.2 c -7.96,-2.3 -12.54,-10.6 -10.23,-18.6 1.91,-6.5 7.9,-10.8 14.4,-10.8 1.38,0 2.79,0.2 4.19,0.6 l 1032.74,299.7 c 44.04,-149.7 96.71,-297.2 158.01,-442.1 20.71,-48.9 42.56,-97.3 65.04,-145.2 L 4403.13,7363.7 c -12.47,-6 -17.76,-20.9 -11.83,-33.3 4.29,-9 13.25,-14.3 22.59,-14.3 3.61,0 7.26,0.8 10.73,2.4 l 1853.07,882.1 c 91.57,-189.4 197.17,-370.6 315.99,-543 l -884.48,-613 c -6.8,-4.7 -8.5,-14 -3.78,-20.8 2.91,-4.3 7.59,-6.5 12.34,-6.5 2.95,0 5.93,0.9 8.53,2.7 l 884.46,612.9 c 112.72,-161 237.22,-314.2 373.03,-459 L 5998.79,6069.4 c -17.64,-19.8 -16.78,-49.9 1.96,-68.6 9.74,-9.8 22.54,-14.7 35.37,-14.7 11.86,0 23.76,4.2 33.26,12.7 l 1104.55,985 c 144.75,-135.8 297.94,-260.3 458.99,-373 l -612.95,-884.5 c -4.72,-6.8 -3.03,-16.2 3.78,-20.9 2.61,-1.8 5.59,-2.7 8.53,-2.7 4.76,0 9.43,2.3 12.34,6.5 l 612.97,884.5 c 172.42,-118.8 353.59,-224.4 542.97,-316 L 7318.53,4424.6 c -5.93,-12.4 -0.64,-27.4 11.83,-33.3 3.47,-1.6 7.13,-2.4 10.72,-2.4 9.35,0 18.31,5.2 22.6,14.2 l 882.1,1853.3 c 47.96,-22.5 96.29,-44.4 145.25,-65.1 144.92,-61.3 292.4,-113.9 442.1,-158 L 8533.39,5000.6 c -2.31,-8 2.27,-16.3 10.23,-18.6 1.39,-0.4 2.8,-0.6 4.19,-0.6 6.5,0 12.49,4.3 14.39,10.8 L 8861.95,6025 c 260.96,-74.7 528.57,-123.1 801.01,-145 l 103.86,-1391.8 7.48,-100.3 38.35,-513.9 7.5,-100.5 129.99,-1742.1 c 0.08,-1.2 0.41,-2.2 0.57,-3.3 0.22,-1.6 0.43,-3.1 0.79,-4.6 0.4,-1.7 0.94,-3.3 1.5,-4.9 0.5,-1.4 0.97,-2.8 1.58,-4.2 0.72,-1.5 1.58,-3 2.45,-4.5 0.72,-1.2 1.4,-2.5 2.22,-3.6 1.02,-1.4 2.19,-2.7 3.34,-4.1 0.91,-1 1.76,-2.1 2.75,-3 1.28,-1.3 2.71,-2.3 4.11,-3.4 1.07,-0.8 2.08,-1.7 3.21,-2.5 1.53,-1 3.2,-1.8 4.84,-2.6 1.17,-0.6 2.28,-1.3 3.5,-1.8 1.89,-0.8 3.89,-1.3 5.88,-1.8 1.11,-0.3 2.16,-0.8 3.3,-1 3.18,-0.6 6.46,-1 9.82,-1 3.4,0 6.6,0.4 9.8,1 1.2,0.2 2.2,0.7 3.3,1 2,0.5 4,1 5.9,1.8 1.2,0.5 2.3,1.2 3.5,1.8 1.6,0.8 3.3,1.6 4.8,2.6 1.2,0.8 2.2,1.7 3.2,2.5 1.5,1.1 2.9,2.1 4.2,3.4 0.9,0.9 1.8,2 2.7,3 1.2,1.4 2.3,2.7 3.3,4.1 0.9,1.1 1.5,2.4 2.3,3.6 0.8,1.5 1.7,3 2.4,4.5 0.6,1.4 1.1,2.8 1.6,4.2 0.6,1.6 1.1,3.2 1.5,4.9 0.4,1.5 0.6,3 0.8,4.6 0.2,1.1 0.5,2.1 0.6,3.3 l 130,1742.1 7.5,100.5 38,509.4 7.5,100.5 104.1,1396.1 c 272.5,21.9 540.1,70.3 801.1,145 l 299.7,-1032.8 c 1.9,-6.5 7.9,-10.8 14.4,-10.8 1.4,0 2.8,0.2 4.2,0.6 7.9,2.3 12.5,10.6 10.2,18.6 l -299.7,1032.7 c 149.7,44.1 297.2,96.7 442.1,158 48.9,20.7 97.3,42.6 145.2,65.1 l 882.1,-1853.3 c 4.3,-9 13.3,-14.2 22.6,-14.2 3.6,0 7.3,0.8 10.7,2.4 12.5,5.9 17.8,20.9 11.9,33.3 l -882.1,1853.1 c 189.4,91.6 370.6,197.2 543,316 l 613,-884.5 c 2.9,-4.2 7.6,-6.5 12.3,-6.5 3,0 5.9,0.9 8.6,2.7 6.8,4.7 8.5,14.1 3.7,20.9 l -612.9,884.5 c 161,112.7 314.2,237.2 459,373 l 1104.5,-985 c 9.5,-8.5 21.4,-12.7 33.3,-12.7 12.8,0 25.6,4.9 35.3,14.7 18.8,18.7 19.6,48.8 2,68.6 l -985,1104.5 c 135.8,144.8 260.3,298 373,459 l 884.5,-612.9 c 2.6,-1.8 5.6,-2.7 8.5,-2.7 4.8,0 9.5,2.2 12.4,6.5 4.7,6.8 3,16.1 -3.8,20.8 l -884.5,613 c 118.8,172.4 224.4,353.6 316,543 l 1853.1,-882.1 c 3.4,-1.6 7.1,-2.4 10.7,-2.4 9.3,0 18.3,5.3 22.6,14.3 5.9,12.4 0.6,27.3 -11.8,33.3 l -1853.3,882.1 c 22.5,47.9 44.4,96.3 65.1,145.2 61.3,144.9 113.9,292.4 158,442.1 l 1032.7,-299.7 c 1.4,-0.4 2.8,-0.6 4.2,-0.6 6.5,0 12.5,4.3 14.4,10.8 2.3,8 -2.3,16.3 -10.2,18.6 L 13975,8862 c 74.7,260.9 123.1,528.5 145,801 l 1370.9,102.2 100.3,7.5 513.5,38.4 100.5,7.5 1763.4,131.5 c 1.2,0.1 2.2,0.5 3.4,0.6 1.5,0.2 3,0.4 4.5,0.8 1.7,0.4 3.3,0.9 4.9,1.5 1.4,0.5 2.8,1 4.1,1.6 1.6,0.7 3.1,1.6 4.6,2.4 1.2,0.8 2.5,1.4 3.6,2.3 1.4,1 2.7,2.1 4,3.3 1.1,0.9 2.2,1.8 3.1,2.7 1.2,1.3 2.3,2.7 3.4,4.1 0.8,1.1 1.7,2.1 2.5,3.3 1,1.5 1.8,3.1 2.6,4.8 0.6,1.1 1.3,2.3 1.8,3.5 0.8,1.9 1.3,3.9 1.8,5.9 0.3,1.1 0.8,2.1 1,3.3 0.6,3.2 1,6.4 1,9.8 0,3.4 -0.4,6.6 -1,9.8"
         style="fill:#99A1AF;fill-opacity:1;fill-rule:nonzero;stroke:none"
         transform="matrix(0.13333333,0,0,-0.13333333,0,2666.6667)" />
      <path
         id="path114"
         d="m 11271.3,9646.6 c -2.6,-9.6 -5.5,-19.2 -8.4,-28.8 -7.1,-23.4 -14.8,-46.6 -23.2,-69.5 -6.3,-17.4 -13.1,-34.6 -20.2,-51.6 -5.7,-13.8 -11.6,-27.5 -17.8,-41 -1.6,-3.7 -3.4,-7.3 -5.1,-10.9 -5.3,-11.5 -10.8,-22.9 -16.5,-34.2 -18.8,-37.3 -39.3,-73.7 -61.3,-108.9 -8.6,-13.7 -17.4,-27.2 -26.4,-40.5 -0.7,-1 -1.3,-1.9 -2,-2.8 -5,-7.3 -10,-14.6 -15.1,-21.8 -4.8,-6.8 -9.7,-13.4 -14.6,-20 -78.3,-105.5 -171.8,-199 -277.4,-277.1 -6.6,-4.9 -13.3,-9.8 -20,-14.6 -7.2,-5.1 -14.5,-10.2 -21.8,-15.2 -1,-0.6 -1.9,-1.3 -2.8,-1.9 -13.4,-9.1 -26.9,-17.8 -40.6,-26.4 -35.2,-22 -71.6,-42.4 -108.9,-61.1 -11.2,-5.7 -22.6,-11.1 -34,-16.5 -3.7,-1.7 -7.3,-3.5 -11.1,-5.1 -13.4,-6.2 -27,-12 -40.7,-17.7 -17.1,-7 -34.3,-13.8 -51.7,-20.2 -22.9,-8.3 -46.2,-16 -69.7,-23.2 -9.6,-2.9 -19.2,-5.7 -28.8,-8.3 -97.1,-27 -198.6,-43.2 -303.2,-47.1 -16.6,-0.6 -33.3,-1 -50,-1 -16.75,0 -33.4,0.4 -50,1 -104.6,3.9 -206.13,20.1 -303.19,47.1 -9.65,2.6 -19.25,5.4 -28.81,8.3 -23.52,7.2 -46.79,14.9 -69.73,23.2 -17.4,6.4 -34.6,13.2 -51.65,20.2 -13.69,5.7 -27.3,11.5 -40.75,17.7 -3.72,1.6 -7.39,3.4 -11.09,5.1 -11.43,5.4 -22.76,10.8 -34,16.5 -37.33,18.7 -73.65,39.1 -108.86,61.1 -13.69,8.6 -27.25,17.4 -40.59,26.4 -0.94,0.6 -1.86,1.3 -2.8,1.9 -7.33,5 -14.63,10.1 -21.85,15.2 -6.71,4.8 -13.34,9.7 -19.95,14.6 -105.6,78.1 -199.18,171.6 -277.4,277.1 -4.92,6.6 -9.8,13.2 -14.59,20 -5.14,7.2 -10.16,14.5 -15.15,21.8 -0.65,0.9 -1.33,1.8 -1.97,2.8 -9.05,13.3 -17.81,26.8 -26.37,40.5 -22.1,35.2 -42.58,71.6 -61.34,108.9 -5.68,11.3 -11.19,22.7 -16.55,34.2 -1.69,3.6 -3.42,7.2 -5.08,10.9 -6.17,13.5 -12.06,27.2 -17.77,41 -7.08,17 -13.87,34.2 -20.25,51.6 -8.38,22.9 -16.07,46.1 -23.19,69.5 -2.91,9.6 -5.72,19.2 -8.41,28.8 -27.09,97.1 -43.29,198.7 -47.28,303.4 -0.64,16.9 -1.07,33.8 -1.07,50.9 0,16.4 0.41,32.8 1,49.1 3.79,104.3 19.62,206 46.42,303.6 2.65,9.7 5.41,19.3 8.28,28.9 6.97,23.3 14.57,46.3 22.78,69.1 6.25,17.3 12.76,34.6 19.73,51.6 5.76,14.1 11.85,28 18.09,41.9 1.5,3.3 3.02,6.6 4.54,9.9 5.45,11.9 11.06,23.6 16.86,35.3 18.72,37.7 39.2,74.4 61.42,110 8.41,13.5 17.1,26.8 26,40 0.77,1.1 1.53,2.3 2.3,3.4 4.85,7.2 9.77,14.2 14.76,21.3 4.91,6.9 9.81,13.8 14.85,20.6 63.36,85.8 137.26,164 220.44,232.6 -72.46,-85.1 -131.47,-180.6 -175.17,-283.3 -1.27,-3 -2.49,-6 -3.73,-9 -3.93,-9.5 -7.67,-19 -11.34,-28.6 -1.84,-4.8 -3.75,-9.6 -5.53,-14.4 -6.6,-18 -12.62,-36.3 -18.29,-54.7 -6.5,-21 -12.34,-42.3 -17.58,-63.8 -1.86,-7.7 -3.78,-15.3 -5.48,-23 -2.06,-9.3 -3.88,-18.6 -5.71,-28 -1.46,-7.5 -2.92,-15 -4.22,-22.6 -1.62,-9.4 -3.06,-18.8 -4.44,-28.2 -6.09,-41.6 -9.81,-83.7 -11.14,-126.3 -0.33,-10.4 -0.66,-20.7 -0.7,-31 0,-1.3 -0.08,-2.6 -0.08,-3.9 0,-86.5 9.99,-170.6 28.85,-251.4 7.92,-34 17.42,-67.3 28.41,-100 24.87,-74 57.4,-144.5 96.59,-210.6 5.29,-8.9 10.69,-17.8 16.22,-26.5 21.33,-33.8 44.42,-66.4 69.18,-97.6 4.28,-5.4 8.57,-10.8 12.95,-16.1 6.56,-7.9 13.26,-15.8 20.04,-23.6 4.26,-4.9 8.57,-9.7 12.92,-14.5 11.22,-12.4 22.72,-24.6 34.48,-36.5 3.65,-3.7 7.33,-7.3 11.03,-11 6.46,-6.3 13,-12.6 19.62,-18.8 7.49,-7 15.08,-13.9 22.76,-20.7 5.71,-5.1 11.47,-10.1 17.29,-15.1 22.8,-19.4 46.39,-37.9 70.72,-55.4 15.38,-11.1 31.03,-21.8 46.98,-32 17.18,-11.1 34.7,-21.7 52.52,-31.9 16.57,-9.4 33.43,-18.4 50.52,-27 0.57,-0.3 1.13,-0.5 1.7,-0.8 8.48,-4.3 17.02,-8.4 25.62,-12.4 19.37,-9.1 39.02,-17.6 58.98,-25.6 9.79,-3.9 19.64,-7.7 29.56,-11.3 7.81,-2.9 15.66,-5.7 23.55,-8.3 8,-2.8 16.04,-5.4 24.12,-7.9 10.47,-3.3 21.01,-6.4 31.62,-9.4 19.15,-5.4 38.53,-10.3 58.08,-14.6 9.77,-2.2 19.59,-4.3 29.45,-6.2 52.73,-10.3 106.78,-16.8 161.87,-19.3 16.58,-0.7 33.24,-1.1 50,-1.1 16.8,0 33.4,0.4 50,1.1 55.1,2.5 109.1,9 161.9,19.3 9.8,1.9 19.6,4 29.4,6.2 19.6,4.3 38.9,9.2 58.1,14.6 10.6,3 21.1,6.1 31.6,9.4 8.1,2.5 16.1,5.1 24.1,7.9 7.9,2.6 15.8,5.4 23.6,8.3 9.9,3.6 19.8,7.4 29.5,11.3 20,7.9 39.7,16.5 59,25.6 8.6,4 17.2,8.1 25.7,12.4 0.5,0.3 1.1,0.5 1.6,0.8 17.1,8.6 34,17.6 50.6,27 17.8,10.2 35.3,20.8 52.5,31.9 15.9,10.2 31.6,20.9 47,32 24.3,17.5 47.9,36 70.7,55.4 5.8,5 11.6,10 17.3,15.1 7.7,6.8 15.2,13.7 22.7,20.7 6.7,6.2 13.2,12.5 19.7,18.8 3.7,3.7 7.3,7.3 11,11 11.7,11.9 23.3,24.1 34.5,36.5 4.3,4.8 8.6,9.6 12.9,14.5 6.8,7.8 13.5,15.7 20,23.6 4.4,5.3 8.7,10.7 13,16.1 24.7,31.2 47.8,63.8 69.2,97.6 5.5,8.7 10.9,17.6 16.2,26.5 39.2,66.1 71.7,136.6 96.6,210.6 11,32.7 20.5,66 28.4,100 18.8,80.8 28.8,164.9 28.8,251.4 0,1.3 0,2.6 -0.1,3.9 0,10.3 -0.3,20.6 -0.6,31 -1.4,42.6 -5.1,84.7 -11.2,126.3 -1.4,9.4 -2.8,18.8 -4.4,28.2 -1.3,7.6 -2.8,15.1 -4.3,22.6 -1.8,9.4 -3.6,18.7 -5.7,28 -1.7,7.7 -3.6,15.3 -5.4,23 -5.3,21.5 -11.1,42.8 -17.6,63.8 -5.7,18.4 -11.7,36.7 -18.3,54.7 -1.8,4.8 -3.7,9.6 -5.5,14.4 -3.7,9.6 -7.4,19.1 -11.4,28.6 -1.2,3 -2.4,6 -3.7,9 -43.7,102.7 -102.7,198.2 -175.2,283.3 83.2,-68.6 157.1,-146.8 220.5,-232.6 5,-6.8 9.9,-13.7 14.8,-20.6 5,-7.1 9.9,-14.1 14.8,-21.3 0.7,-1.1 1.5,-2.3 2.3,-3.4 8.9,-13.2 17.6,-26.5 26,-40 22.2,-35.6 42.7,-72.3 61.4,-110 5.8,-11.7 11.4,-23.4 16.9,-35.3 1.5,-3.3 3,-6.6 4.5,-9.9 6.2,-13.9 12.3,-27.8 18.1,-41.9 6.9,-17 13.5,-34.3 19.7,-51.6 8.2,-22.8 15.8,-45.8 22.8,-69.1 2.9,-9.6 5.6,-19.2 8.3,-28.9 26.8,-97.6 42.6,-199.3 46.4,-303.6 0.6,-16.3 1,-32.7 1,-49.1 0,-17.1 -0.4,-34 -1.1,-50.9 -4,-104.7 -20.2,-206.3 -47.3,-303.4 z m 57.2,723.3 c -2.7,9.7 -5.5,19.3 -8.4,28.9 -4.8,16.1 -10,32.1 -15.4,48.1 -5.9,17.2 -12.2,34.4 -18.8,51.5 -6.7,17.4 -13.7,34.6 -21.2,51.7 -2.9,6.7 -5.9,13.3 -9,19.9 -6.8,15.2 -14,30.2 -21.4,45.2 -22.2,44.4 -46.8,87.7 -73.9,129.8 -6,9.5 -12.2,18.8 -18.5,28.1 -2,2.9 -3.8,5.9 -5.8,8.8 -1.5,2.1 -3,4 -4.4,6.1 -2.3,3.3 -4.6,6.5 -7,9.7 -7.5,10.7 -15.2,21.3 -23,31.7 -78.1,103.8 -169.6,195.3 -272,272.5 -10.5,7.9 -21.1,15.6 -31.7,23.2 -3.3,2.3 -6.5,4.6 -9.7,6.9 -5,3.4 -9.9,6.9 -14.9,10.3 -9.3,6.2 -18.6,12.4 -28,18.4 -41.9,27 -85.3,51.6 -130.1,73.9 -14.8,7.5 -29.9,14.6 -45.1,21.5 -6.7,3 -13.4,6 -20.1,9 -12.2,5.3 -24.4,10.6 -36.8,15.5 -4.8,2 -9.8,2.4 -14.7,1.8 -9.7,-1.2 -18.6,-7.2 -23,-16.7 -6.6,-14.2 -0.9,-31 13,-38.4 5,-2.6 9.8,-5.4 14.8,-8.1 13,-7.2 25.9,-14.6 38.6,-22.3 4.6,-2.8 9.2,-5.6 13.8,-8.4 9.7,-6.1 19.3,-12.3 28.7,-18.6 32.3,-21.8 63.2,-45.2 92.6,-70.1 12.8,-10.9 25.3,-22 37.6,-33.4 1.2,-1.2 2.5,-2.3 3.7,-3.4 7.4,-7 14.6,-14.1 21.8,-21.2 3.5,-3.5 6.9,-6.9 10.3,-10.4 95.4,-98 170.4,-213.4 221.1,-339.8 0.7,-1.9 1.5,-3.7 2.3,-5.5 3,-7.8 5.9,-15.6 8.7,-23.4 3.7,-10 7.2,-20 10.6,-30.1 6.1,-18.5 11.8,-37.2 16.9,-56.1 0.7,-2.5 1.3,-5 2,-7.5 4.4,-16.9 8.6,-33.9 12.2,-51.1 0.2,-0.8 0.4,-1.6 0.5,-2.4 3.4,-16 6.2,-32.2 8.8,-48.4 0.1,-0.9 0.2,-1.8 0.4,-2.6 7.4,-47.6 11.7,-96.1 12.5,-145.1 0.1,-6 0.3,-12 0.3,-18 0,-4.4 -0.1,-8.8 -0.2,-13.2 -1,-82 -11.5,-161.8 -30.4,-238.2 -8.4,-34 -18.5,-67.4 -30.1,-100 -24.4,-68.1 -55.5,-132.9 -92.7,-193.7 -5.5,-8.9 -11.1,-17.6 -16.8,-26.3 -19.5,-29.9 -40.5,-58.7 -62.8,-86.3 -0.7,-0.8 -1.3,-1.6 -2,-2.4 -10,-12.3 -20.2,-24.3 -30.7,-36 -1,-1.1 -2,-2.3 -3,-3.4 -10.2,-11.3 -20.7,-22.4 -31.3,-33.3 -13.3,-13.5 -26.9,-26.7 -40.9,-39.5 -7.6,-7 -15.3,-13.8 -23.1,-20.5 -0.8,-0.7 -1.6,-1.4 -2.4,-2 -22.6,-19.5 -46.1,-38 -70.4,-55.4 -2.3,-1.7 -4.6,-3.3 -6.8,-4.9 -17.2,-12.2 -34.8,-23.8 -52.8,-34.9 -9.2,-5.8 -18.6,-11.4 -28,-16.9 -8.1,-4.7 -16.2,-9.2 -24.4,-13.7 -12.3,-6.7 -24.7,-13 -37.3,-19.2 -9.1,-4.5 -18.2,-8.9 -27.5,-13.1 -24.3,-11.1 -49.1,-21.3 -74.4,-30.5 -1.8,-0.7 -3.7,-1.3 -5.5,-2 -15.8,-5.7 -31.7,-11 -47.8,-15.9 -0.5,-0.1 -0.9,-0.3 -1.3,-0.4 -19,-5.8 -38.2,-11 -57.6,-15.7 -7.2,-1.7 -14.4,-3.4 -21.7,-5 -9.8,-2.2 -19.6,-4.2 -29.5,-6.1 -47.4,-8.9 -96,-14.8 -145.4,-17.1 -16.6,-0.8 -33.2,-1.2 -50,-1.2 -16.76,0 -33.43,0.4 -50,1.2 -49.44,2.3 -97.97,8.2 -145.4,17.1 -9.87,1.9 -19.7,3.9 -29.48,6.1 -7.29,1.6 -14.54,3.3 -21.77,5 -19.39,4.7 -38.57,9.9 -57.52,15.7 -0.43,0.1 -0.86,0.3 -1.29,0.4 -16.1,4.9 -32.04,10.2 -47.81,15.9 -1.85,0.7 -3.72,1.3 -5.57,2 -25.27,9.2 -50.08,19.4 -74.4,30.5 -9.23,4.2 -18.37,8.6 -27.45,13.1 -12.57,6.2 -25.03,12.5 -37.31,19.2 -8.19,4.5 -16.32,9 -24.39,13.7 -9.44,5.5 -18.77,11.1 -28.03,16.9 -17.94,11.1 -35.54,22.7 -52.74,34.9 -2.28,1.6 -4.55,3.2 -6.81,4.9 -24.29,17.5 -47.8,35.9 -70.47,55.4 -0.78,0.6 -1.57,1.3 -2.35,2 -7.79,6.7 -15.48,13.5 -23.08,20.5 -13.99,12.8 -27.61,26 -40.89,39.5 -10.69,10.9 -21.15,22 -31.36,33.3 -0.99,1.1 -1.96,2.3 -2.94,3.4 -10.51,11.7 -20.76,23.7 -30.74,36 -0.66,0.8 -1.31,1.6 -1.96,2.4 -22.37,27.6 -43.36,56.4 -62.88,86.3 -5.69,8.7 -11.29,17.4 -16.74,26.3 -37.21,60.8 -68.35,125.6 -92.68,193.7 -11.66,32.6 -21.74,66 -30.16,100 -18.91,76.4 -29.39,156.2 -30.41,238.2 -0.06,4.4 -0.17,8.8 -0.17,13.2 0,6 0.21,12 0.31,18 0.83,49 5.05,97.5 12.51,145.1 0.14,0.8 0.27,1.7 0.41,2.6 2.58,16.2 5.41,32.4 8.74,48.4 0.16,0.8 0.36,1.6 0.53,2.4 3.61,17.2 7.76,34.2 12.21,51.1 0.65,2.5 1.28,5 1.96,7.5 5.13,18.9 10.81,37.6 16.97,56.1 3.37,10.1 6.87,20.1 10.53,30.1 2.87,7.8 5.72,15.6 8.77,23.4 0.73,1.8 1.54,3.6 2.28,5.5 50.68,126.4 125.68,241.8 221.05,339.8 3.41,3.4 6.86,6.9 10.32,10.4 7.17,7.1 14.4,14.2 21.79,21.2 1.23,1.1 2.49,2.2 3.72,3.4 12.25,11.4 24.81,22.5 37.64,33.4 29.38,24.9 60.21,48.3 92.54,70.1 9.45,6.3 19.03,12.5 28.72,18.6 4.56,2.8 9.17,5.6 13.78,8.4 12.68,7.7 25.58,15.1 38.66,22.3 4.93,2.7 9.8,5.5 14.8,8.1 13.83,7.4 19.52,24.2 12.93,38.4 -4.4,9.5 -13.28,15.5 -23.02,16.7 -4.81,0.6 -9.82,0.2 -14.62,-1.8 -12.38,-4.9 -24.61,-10.2 -36.81,-15.5 -6.74,-3 -13.44,-6 -20.12,-9 -15.2,-6.9 -30.25,-14 -45.15,-21.5 -44.77,-22.3 -88.17,-46.9 -130.03,-73.9 -9.41,-6 -18.74,-12.2 -27.99,-18.4 -4.99,-3.4 -9.96,-6.9 -14.9,-10.3 -3.26,-2.3 -6.45,-4.6 -9.69,-6.9 -10.68,-7.6 -21.28,-15.3 -31.74,-23.2 -102.38,-77.2 -193.9,-168.7 -272,-272.5 -7.84,-10.4 -15.47,-21 -23.04,-31.7 -2.31,-3.2 -4.69,-6.4 -6.98,-9.7 -1.42,-2.1 -2.92,-4 -4.33,-6.1 -2.01,-2.9 -3.85,-5.9 -5.83,-8.8 -6.3,-9.3 -12.5,-18.6 -18.56,-28.1 -27.07,-42.1 -51.65,-85.4 -73.81,-129.8 -7.45,-15 -14.61,-30 -21.49,-45.2 -3.02,-6.6 -6.08,-13.2 -8.99,-19.9 -7.44,-17.1 -14.47,-34.3 -21.19,-51.7 -6.61,-17.1 -12.83,-34.3 -18.74,-51.5 -5.44,-16 -10.6,-32 -15.45,-48.1 -2.89,-9.6 -5.69,-19.2 -8.36,-28.9 -28.7,-103.6 -45.32,-210.8 -49.14,-319.9 -0.57,-16.3 -0.91,-32.7 -0.91,-49.1 0,-17.1 0.42,-34 1.03,-50.9 4.03,-110.4 21.04,-217.4 49.64,-319.8 2.69,-9.6 5.51,-19.2 8.41,-28.8 4.93,-16.2 10.12,-32.3 15.63,-48.3 5.97,-17.4 12.27,-34.5 18.91,-51.6 6.8,-17.4 13.97,-34.6 21.45,-51.7 2.84,-6.5 5.68,-13 8.61,-19.4 6.93,-15.2 14.17,-30.2 21.63,-45.1 22.31,-44.5 46.9,-87.7 73.73,-129.3 6.14,-9.5 12.4,-18.9 18.76,-28.3 3.31,-4.9 6.68,-9.7 10.05,-14.5 2.36,-3.4 4.67,-6.8 7.06,-10.1 7.51,-10.6 15.2,-21 23,-31.3 77.73,-102.9 169.52,-194.7 272.53,-272.3 10.32,-7.8 20.72,-15.4 31.26,-22.9 3.37,-2.4 6.81,-4.7 10.21,-7.1 4.8,-3.4 9.59,-6.7 14.44,-10 9.38,-6.4 18.84,-12.7 28.39,-18.8 41.61,-26.8 84.78,-51.3 129.28,-73.6 14.89,-7.4 29.9,-14.6 45.09,-21.6 6.35,-2.9 12.76,-5.6 19.17,-8.4 17.08,-7.5 34.31,-14.7 51.74,-21.4 17.02,-6.7 34.2,-13 51.55,-18.9 16.05,-5.5 32.25,-10.7 48.55,-15.7 9.56,-2.9 19.16,-5.7 28.81,-8.4 102.27,-28.5 209.3,-45.4 319.59,-49.3 16.6,-0.6 33.25,-1 50,-1 16.7,0 33.4,0.4 50,1 110.3,3.9 217.3,20.8 319.6,49.3 9.6,2.7 19.2,5.5 28.8,8.4 16.3,5 32.5,10.2 48.6,15.7 17.3,5.9 34.5,12.2 51.5,18.9 17.4,6.7 34.7,13.9 51.7,21.4 6.4,2.8 12.9,5.5 19.2,8.4 15.2,7 30.2,14.2 45.1,21.6 44.5,22.3 87.7,46.8 129.3,73.6 9.5,6.1 19,12.4 28.4,18.8 4.8,3.3 9.6,6.6 14.4,10 3.4,2.4 6.8,4.7 10.2,7.1 10.6,7.5 21,15.1 31.3,22.9 103,77.6 194.8,169.4 272.5,272.3 7.8,10.3 15.5,20.7 23,31.3 2.4,3.3 4.7,6.7 7.1,10.1 3.3,4.8 6.7,9.6 10,14.5 6.4,9.4 12.6,18.8 18.8,28.3 26.8,41.6 51.4,84.8 73.7,129.3 7.5,14.9 14.7,29.9 21.6,45.1 3,6.4 5.8,12.9 8.6,19.4 7.5,17.1 14.7,34.3 21.5,51.7 6.6,17.1 12.9,34.2 18.9,51.6 5.5,16 10.7,32.1 15.6,48.3 2.9,9.6 5.8,19.2 8.5,28.8 28.6,102.4 45.6,209.4 49.6,319.8 0.6,16.9 1,33.8 1,50.9 0,16.4 -0.3,32.8 -0.9,49.1 -3.8,109.1 -20.4,216.3 -49.1,319.9"
         style="fill:#99A1AF;fill-opacity:1;fill-rule:nonzero;stroke:none"
         transform="matrix(0.13333333,0,0,-0.13333333,0,2666.6667)" />
      <path
         id="path115"
         d="m 11198.3,10332.2 c -2.7,9.6 -5.4,19.2 -8.3,28.8 -3.8,12.7 -7.7,25.4 -11.9,38 1.1,-13.6 1.8,-27.1 2.5,-40.7 0.5,-10.3 0.7,-20.7 0.9,-31 0.2,-8.6 0.6,-17.3 0.6,-25.9 0,-86.3 -9.4,-170.4 -27,-251.4 -7.4,-33.9 -16.1,-67.3 -26.4,-100 -25.4,-81.7 -59.6,-159.5 -101.3,-232.6 -5.1,-8.9 -10.3,-17.8 -15.6,-26.7 -22.9,-37.8 -47.9,-74.1 -74.8,-109 -10.4,-13.6 -21.2,-27 -32.2,-40.1 v 0 c -5.5,-6.6 -11.1,-13.1 -16.8,-19.5 -5.4,-6.2 -10.9,-12.3 -16.4,-18.4 -11.1,-12 -22.4,-23.9 -34,-35.5 -0.2,-0.3 -0.4,-0.5 -0.6,-0.7 -5.8,-5.8 -11.6,-11.5 -17.5,-17.2 -7.4,-7.1 -14.8,-14.1 -22.4,-21 -5.7,-5.3 -11.6,-10.4 -17.4,-15.6 -58.3,-51.2 -121.6,-96.9 -189.1,-136 -17.1,-9.9 -34.5,-19.4 -52.1,-28.4 0,-0.1 -0.1,-0.1 -0.2,-0.1 -8.9,-4.6 -17.9,-9.1 -26.9,-13.4 -8.3,-4 -16.7,-8 -25.1,-11.8 -4.9,-2.2 -9.9,-4.3 -14.8,-6.5 -17,-7.4 -34.2,-14.4 -51.6,-21 -2.7,-1.1 -5.5,-2.2 -8.2,-3.2 -15.1,-5.6 -30.2,-10.9 -45.5,-15.9 -0.7,-0.2 -1.4,-0.4 -2,-0.6 -33.3,-10.8 -67.1,-20.2 -101.5,-28 -9.8,-2.3 -19.6,-4.3 -29.4,-6.3 -59.6,-12 -120.9,-19.4 -183.3,-22.1 -16.6,-0.6 -33.2,-1.1 -50,-1.1 -16.76,0 -33.41,0.5 -50,1.1 -62.45,2.7 -123.66,10.1 -183.26,22.1 -9.85,2 -19.65,4 -29.41,6.3 -34.42,7.8 -68.26,17.2 -101.48,28 -0.67,0.2 -1.34,0.4 -2.01,0.6 -15.3,5 -30.48,10.3 -45.5,15.9 -2.77,1 -5.53,2.1 -8.29,3.2 -17.37,6.6 -34.54,13.6 -51.51,21 -4.95,2.2 -9.92,4.3 -14.84,6.5 -8.41,3.8 -16.78,7.8 -25.09,11.8 -9.03,4.3 -18.01,8.8 -26.92,13.4 -0.07,0 -0.14,0 -0.22,0.1 -17.61,9 -34.96,18.5 -52.06,28.4 -67.53,39.1 -130.82,84.8 -189.08,136 -5.87,5.2 -11.7,10.3 -17.46,15.6 -7.55,6.9 -14.99,13.9 -22.36,21 -5.87,5.7 -11.71,11.4 -17.47,17.2 -0.23,0.2 -0.45,0.4 -0.69,0.7 -11.56,11.6 -22.87,23.5 -33.94,35.5 -5.54,6.1 -10.99,12.2 -16.4,18.4 -5.68,6.4 -11.28,12.9 -16.81,19.5 h -0.01 c -11.02,13.1 -21.76,26.5 -32.22,40.1 -26.85,34.9 -51.85,71.2 -74.75,109 -5.34,8.9 -10.55,17.8 -15.67,26.7 -41.68,73.1 -75.83,150.9 -101.3,232.6 -10.21,32.7 -18.96,66.1 -26.33,100 -17.62,81 -26.99,165.1 -26.99,251.4 0,8.6 0.34,17.3 0.53,25.9 0.22,10.3 0.47,20.7 0.96,31 0.64,13.6 1.39,27.1 2.49,40.7 -4.24,-12.6 -8.11,-25.3 -11.95,-38 -2.89,-9.6 -5.59,-19.2 -8.25,-28.8 -25.25,-91.6 -40.2,-186.3 -43.96,-282.2 -0.64,-16.3 -1,-32.7 -1,-49.1 0,-17 0.43,-34 1.1,-50.9 3.86,-96.5 18.59,-191 43.77,-282.2 2.66,-9.6 5.45,-19.2 8.34,-28.8 9.93,-32.8 21.3,-65.1 33.91,-96.9 6.91,-17.4 14.2,-34.7 21.9,-51.8 0.31,-0.7 0.63,-1.4 0.94,-2 6.87,-15.2 13.99,-30.3 21.48,-45.2 0.81,-1.6 1.66,-3.2 2.47,-4.8 13.41,-26.4 27.77,-52.3 43.09,-77.7 8.95,-14.8 18.23,-29.5 27.81,-44 2.73,-4.1 5.5,-8.2 8.28,-12.3 5.62,-8.2 11.33,-16.4 17.16,-24.6 1.27,-1.8 2.57,-3.5 3.86,-5.3 38.86,-53.8 82.22,-104.8 130.03,-152.6 48.11,-48.2 99.52,-91.8 153.63,-130.8 1.77,-1.3 3.53,-2.6 5.3,-3.8 8.15,-5.9 16.36,-11.6 24.64,-17.2 4.11,-2.8 8.24,-5.5 12.38,-8.3 14.49,-9.5 29.13,-18.8 43.97,-27.7 25.33,-15.3 51.17,-29.6 77.46,-42.9 1.67,-0.8 3.34,-1.7 5.01,-2.6 14.91,-7.4 29.98,-14.5 45.16,-21.4 0.61,-0.3 1.21,-0.6 1.82,-0.8 17.09,-7.7 34.35,-15 51.77,-21.9 31.87,-12.6 64.25,-23.9 97.13,-33.9 9.57,-2.9 19.18,-5.6 28.82,-8.3 91.1,-25.1 185.59,-39.7 282.02,-43.5 16.62,-0.7 33.28,-1.1 50,-1.1 16.7,0 33.4,0.4 50,1.1 96.4,3.8 190.9,18.4 282,43.5 9.7,2.7 19.3,5.4 28.8,8.3 32.9,10 65.3,21.3 97.2,33.9 17.4,6.9 34.7,14.2 51.7,21.9 0.6,0.2 1.2,0.5 1.9,0.8 15.1,6.9 30.2,14 45.1,21.4 1.7,0.9 3.4,1.8 5,2.6 26.3,13.3 52.2,27.6 77.5,42.9 14.8,8.9 29.5,18.2 44,27.7 4.1,2.8 8.2,5.5 12.3,8.3 8.3,5.6 16.5,11.3 24.7,17.2 1.8,1.2 3.5,2.5 5.3,3.8 54.1,39 105.5,82.6 153.6,130.8 47.8,47.8 91.2,98.8 130,152.6 1.3,1.8 2.6,3.5 3.9,5.3 5.8,8.2 11.5,16.4 17.2,24.6 2.7,4.1 5.5,8.2 8.2,12.3 9.6,14.5 18.9,29.2 27.8,44 15.4,25.4 29.7,51.3 43.1,77.7 0.9,1.6 1.7,3.2 2.5,4.8 7.5,14.9 14.6,30 21.5,45.2 0.3,0.6 0.6,1.3 0.9,2 7.7,17.1 15,34.4 21.9,51.8 12.6,31.8 24,64.1 33.9,96.9 2.9,9.6 5.7,19.2 8.4,28.8 25.2,91.2 39.9,185.7 43.7,282.2 0.7,16.9 1.1,33.9 1.1,50.9 0,16.4 -0.3,32.8 -0.9,49.1 -3.8,95.9 -18.8,190.6 -44,282.2"
         style="fill:#99A1AF;fill-opacity:1;fill-rule:nonzero;stroke:none"
         transform="matrix(0.13333333,0,0,-0.13333333,0,2666.6667)" />
    </g>
  </g>
</svg>
